
<svg version="1.0" xmlns="http://www.w3.org/2000/svg" className="logo"
 width="1200.000000pt" height="1236.000000pt" viewBox="0 0 1200.000000 1236.000000"
 preserveAspectRatio="xMidYMid meet">

<g transform="translate(0.000000,1236.000000) scale(0.100000,-0.100000)"
fill="#292929" stroke="none">
<path d="M5840 11822 c-71 -20 -105 -39 -133 -74 -66 -85 -114 -145 -129 -159
-14 -15 -76 -136 -116 -229 -8 -19 -19 -43 -23 -52 -17 -33 -11 -68 11 -68 16
0 29 18 57 78 20 42 48 93 63 112 14 19 40 63 58 97 42 83 140 186 191 201 53
16 106 15 141 -3 59 -31 24 -55 -92 -62 -136 -10 -105 -40 49 -49 151 -8 163
-11 163 -39 0 -49 -80 -73 -115 -35 -24 27 -47 25 -75 -5 -21 -23 -31 -25
-106 -25 -46 0 -86 -5 -89 -10 -10 -17 5 -68 22 -74 9 -4 23 0 33 9 9 8 33 15
53 15 34 0 37 -2 37 -29 0 -41 -21 -54 -77 -47 -103 13 -95 15 -108 -35 -13
-51 -51 -134 -73 -161 -21 -26 -11 -60 23 -77 17 -8 39 -19 50 -25 11 -6 76
-12 145 -13 69 -1 129 -3 134 -3 13 0 -3 -123 -18 -138 -7 -7 -39 -14 -71 -15
l-59 -2 -7 38 c-3 20 -8 40 -11 42 -10 10 -37 -7 -43 -26 -8 -23 -33 -24 -71
-4 -37 19 -68 19 -84 0 -22 -27 -4 -42 59 -49 47 -5 61 -11 62 -24 7 -108 -3
-182 -25 -182 -8 0 -24 -9 -37 -19 l-24 -19 29 -31 29 -30 -32 -96 c-17 -53
-31 -108 -31 -124 0 -15 -7 -50 -15 -77 -34 -109 -44 -140 -49 -166 -9 -39
-26 -35 -26 6 0 19 -5 38 -11 41 -16 10 -36 -22 -63 -105 -41 -125 -48 -143
-71 -191 -14 -28 -20 -57 -18 -75 7 -43 -21 -106 -43 -97 -13 5 -15 15 -9 57
3 28 13 58 21 67 18 20 19 79 1 79 -14 0 -33 -35 -68 -123 -29 -72 -49 -93
-78 -77 -12 6 -21 18 -21 28 1 17 30 108 41 127 4 6 18 49 33 96 30 93 41 106
129 148 51 25 58 36 28 46 -13 4 -21 17 -23 38 -3 28 -6 32 -30 29 -25 -2 -28
1 -28 25 0 15 7 37 15 47 8 11 15 25 15 32 0 7 10 29 21 49 l22 36 21 -20 c12
-12 29 -21 37 -21 22 1 45 41 52 93 4 26 16 76 27 110 12 34 25 84 31 111 9
50 32 86 54 86 7 0 18 6 24 13 14 17 -8 38 -61 60 -34 14 -39 14 -59 -2 -19
-15 -20 -18 -5 -30 20 -17 20 -59 1 -120 -8 -25 -22 -76 -32 -113 -19 -74 -35
-85 -52 -38 -5 17 -16 30 -24 30 -18 0 -47 -43 -58 -84 -4 -17 -13 -51 -20
-76 -14 -55 -36 -116 -55 -153 -8 -16 -14 -34 -14 -41 0 -6 -13 -26 -30 -44
-21 -24 -30 -43 -30 -68 0 -21 -13 -58 -32 -92 -18 -31 -42 -77 -54 -102 l-22
-44 24 -29 24 -28 -21 -41 c-20 -40 -26 -42 -70 -24 -19 8 -61 -31 -83 -77 -8
-18 -24 -41 -34 -50 -17 -15 -21 -16 -31 -3 -10 11 -8 23 8 55 12 22 21 56 21
75 0 19 6 47 14 63 55 109 109 270 104 309 -7 59 -32 33 -71 -71 -34 -92 -51
-125 -64 -125 -8 0 -13 12 -13 30 0 64 -44 13 -74 -85 -10 -33 -25 -74 -32
-92 -8 -17 -14 -49 -14 -70 0 -22 -3 -43 -6 -46 -9 -9 -54 -119 -54 -132 0 -6
-12 -23 -26 -39 l-27 -28 -166 6 c-91 3 -192 9 -224 12 -54 5 -61 4 -87 -21
-25 -24 -31 -26 -66 -17 -43 11 -198 25 -459 43 -124 8 -186 8 -230 0 -40 -8
-77 -8 -115 -2 -118 21 -204 31 -293 37 -50 3 -121 11 -157 19 -73 15 -190 31
-293 41 -55 5 -73 2 -95 -12 -30 -20 -141 -22 -203 -4 -18 6 -75 15 -125 20
-87 9 -192 31 -215 46 -11 6 -87 18 -227 34 -64 7 -93 6 -130 -5 -26 -8 -58
-15 -72 -15 -14 0 -36 -7 -48 -16 -19 -13 -22 -21 -16 -52 4 -20 8 -40 11 -44
2 -4 29 5 61 19 111 49 334 37 397 -21 23 -21 38 -26 81 -26 29 0 75 5 102 11
45 11 52 10 81 -12 36 -27 38 -44 11 -105 -19 -41 -20 -55 -13 -157 l9 -112 7
125 c7 109 10 127 29 143 11 9 30 17 43 17 12 0 49 13 81 30 67 34 74 35 74
17 0 -22 -65 -77 -103 -88 -28 -7 -39 -17 -44 -37 -9 -32 -10 -151 -3 -242 5
-71 2 -73 -57 -55 -21 7 -23 4 -23 -27 0 -37 15 -58 41 -58 16 0 36 -34 73
-125 12 -28 31 -71 61 -140 8 -16 15 -39 17 -49 2 -11 9 -21 16 -24 17 -5 15
43 -3 58 -8 7 -15 23 -15 37 0 13 -5 33 -11 44 -9 18 -39 167 -39 198 0 12 3
12 12 3 23 -23 30 -12 24 36 -3 26 -9 111 -12 190 -6 140 -6 143 17 166 32 31
62 46 94 46 14 0 28 6 31 13 7 20 57 55 88 63 45 11 42 -19 -8 -94 -25 -37
-46 -74 -46 -82 0 -7 -8 -22 -17 -32 -15 -17 -17 -39 -16 -148 0 -71 6 -144
13 -165 51 -155 66 -341 20 -255 -6 11 -15 20 -20 20 -19 0 -10 -40 20 -83 17
-25 30 -48 30 -52 0 -6 12 -37 45 -110 7 -16 16 -38 19 -47 3 -10 11 -18 17
-18 8 0 10 14 6 45 -5 35 -3 45 8 45 17 0 51 -47 61 -86 4 -16 23 -54 43 -84
57 -86 61 -93 72 -122 11 -28 36 -42 60 -34 8 3 23 -2 34 -12 32 -28 85 -99
85 -114 0 -16 55 -96 77 -113 7 -6 9 -15 4 -23 -6 -10 -20 -4 -57 28 -116 97
-224 213 -256 273 -9 18 -21 37 -26 42 -4 6 -11 18 -15 28 -3 9 -11 17 -17 17
-15 0 -12 -16 5 -30 8 -7 15 -25 15 -39 0 -15 12 -43 27 -61 31 -39 175 -183
246 -247 41 -36 59 -63 42 -63 -10 0 -89 54 -126 85 -19 16 -59 50 -88 74 -29
24 -78 78 -110 120 -31 42 -66 81 -78 87 -27 13 -58 50 -67 82 -4 12 -11 22
-16 22 -4 0 -10 9 -13 20 -6 23 -27 27 -27 5 0 -21 -26 -19 -34 3 -3 9 -15 31
-26 47 -11 17 -24 40 -30 53 -5 12 -14 22 -19 22 -5 0 -12 8 -15 18 -12 32
-45 87 -46 77 -14 -111 -14 -133 5 -161 8 -13 15 -32 15 -43 0 -11 7 -26 15
-35 8 -8 15 -26 15 -39 0 -14 7 -30 15 -37 19 -16 20 -50 1 -50 -7 0 -16 10
-20 23 l-6 22 -18 -23 -18 -24 -30 44 c-16 24 -31 45 -34 48 -3 3 -18 22 -33
43 -29 38 -54 47 -63 23 -8 -20 76 -133 169 -228 42 -43 77 -86 77 -94 0 -18
-36 -19 -43 0 -3 8 -15 12 -29 9 -20 -4 -38 10 -99 74 -41 44 -84 99 -97 124
-13 24 -34 64 -48 88 -13 24 -24 59 -24 77 0 44 -13 49 -38 14 -29 -39 -28
-59 8 -109 29 -40 69 -115 103 -193 9 -21 23 -38 31 -38 14 0 106 -97 106
-112 0 -33 -82 34 -125 102 -14 22 -29 40 -33 40 -11 0 -93 127 -129 200 -17
32 -36 56 -47 58 -16 3 -18 0 -11 -19 15 -51 17 -79 5 -79 -12 0 -49 39 -50
52 0 4 -12 26 -27 50 -45 69 -51 81 -73 127 -11 24 -20 52 -20 62 0 11 -18 37
-39 59 -22 23 -43 55 -46 73 -11 53 -16 67 -25 67 -5 0 -10 -12 -12 -27 -5
-49 -26 -28 -73 76 -16 37 -21 126 -6 135 11 7 21 -17 21 -54 0 -15 7 -33 15
-40 8 -7 15 -21 15 -30 0 -25 10 -50 21 -50 15 0 10 65 -6 86 -8 10 -15 39
-15 64 0 25 -7 58 -15 74 -19 35 -19 46 -1 46 7 0 16 -10 20 -22 4 -18 8 -20
18 -10 9 9 8 19 -5 47 -9 20 -17 47 -17 61 0 13 -7 40 -15 59 -17 42 -10 149
9 123 17 -23 49 -29 69 -13 22 16 71 151 63 172 -4 11 -14 13 -32 9 -19 -5
-37 1 -71 24 -61 42 -76 37 -87 -28 -7 -35 -14 -51 -22 -48 -7 3 -18 -2 -25
-10 -14 -18 -7 -191 10 -222 6 -12 11 -45 11 -75 0 -40 4 -56 15 -61 19 -7 21
-80 3 -74 -7 3 -14 20 -16 39 -2 18 -9 37 -15 41 -12 7 -27 51 -62 183 -13 50
-29 105 -35 123 -10 26 -9 39 1 63 10 26 10 32 -2 40 -28 17 -54 9 -83 -28
l-30 -37 17 -60 c10 -34 22 -79 28 -101 6 -22 14 -44 20 -49 5 -6 9 -31 9 -57
0 -26 4 -50 9 -53 4 -3 18 -34 30 -68 13 -35 29 -78 36 -96 8 -18 21 -47 28
-65 8 -17 28 -61 45 -97 18 -36 32 -69 32 -74 0 -4 14 -25 30 -46 17 -21 30
-43 30 -48 0 -6 33 -55 73 -109 40 -54 98 -136 129 -183 132 -203 206 -270
483 -435 210 -125 239 -135 382 -135 109 0 193 -14 246 -41 52 -27 116 -38
267 -44 91 -4 194 -13 230 -20 36 -8 81 -13 100 -13 119 2 257 -4 330 -13 47
-6 209 -14 360 -18 l275 -6 7 -82 c4 -54 15 -100 33 -140 57 -127 71 -162 101
-250 18 -53 34 -75 95 -128 19 -17 55 -58 82 -92 26 -34 53 -68 60 -75 7 -7
23 -29 35 -49 12 -21 33 -44 46 -53 29 -18 106 -119 124 -159 44 -102 54 -151
46 -232 -14 -153 -8 -252 18 -303 16 -31 32 -48 48 -52 21 -5 26 -13 28 -45 4
-37 -15 -148 -40 -240 -14 -51 -26 -118 -64 -355 -9 -52 -23 -128 -31 -168 -9
-40 -15 -109 -15 -154 1 -44 -3 -89 -8 -99 -6 -10 -17 -56 -25 -102 -8 -47
-17 -92 -21 -101 -10 -27 16 -18 44 16 36 41 44 84 25 121 -18 35 -11 45 21
28 31 -17 42 -79 22 -124 -9 -18 -20 -52 -25 -77 -6 -25 -19 -52 -30 -61 -29
-24 -54 -86 -60 -153 -4 -38 -11 -61 -20 -64 -12 -4 -13 10 -8 77 4 60 2 81
-6 78 -7 -2 -16 -21 -20 -43 -4 -21 -15 -68 -23 -103 -9 -37 -11 -68 -6 -73 5
-5 78 -7 163 -6 l154 3 6 35 c20 102 33 161 48 220 l17 65 150 3 c113 2 154
-1 161 -10 6 -7 18 -49 28 -93 30 -139 49 -186 96 -232 24 -24 53 -46 64 -48
11 -2 48 -9 83 -16 50 -9 72 -9 105 1 64 18 99 59 64 73 -26 10 -64 104 -81
202 -9 55 -22 120 -28 145 -6 25 -13 61 -15 80 -5 46 -31 238 -44 320 -5 36
-14 101 -19 145 -5 44 -14 96 -20 115 -5 19 -10 52 -10 73 0 21 -6 66 -14 100
-31 139 -46 215 -51 269 -8 74 2 80 104 60 62 -12 87 -12 138 -2 73 14 120 6
128 -21 4 -11 5 -54 4 -97 -5 -184 14 -1378 23 -1389 12 -16 285 -8 306 9 10
9 12 30 8 92 -3 45 -2 221 2 391 l7 310 25 0 c18 0 26 -7 31 -25 4 -14 22 -72
39 -130 18 -58 39 -127 47 -155 8 -27 19 -63 25 -80 6 -16 13 -49 18 -73 4
-24 12 -48 18 -54 7 -7 12 -18 12 -26 0 -7 21 -56 46 -108 38 -79 54 -101 97
-133 126 -95 295 -108 370 -30 19 21 15 39 -9 39 -36 0 -82 52 -127 144 -26
52 -47 100 -47 106 0 7 -6 24 -14 38 -15 30 -33 81 -46 127 -5 17 -14 46 -21
65 -14 40 -31 89 -48 140 -14 40 -39 124 -48 158 -6 24 20 62 43 62 20 0 102
100 129 156 14 30 31 95 41 160 14 95 14 130 4 269 -11 142 -16 167 -42 222
-35 74 -124 161 -204 199 -49 23 -54 29 -54 57 0 33 19 103 40 148 9 21 9 33
-4 64 -24 57 -20 80 16 106 40 29 98 59 114 59 6 0 30 14 52 30 23 17 46 30
52 30 15 0 140 132 140 147 0 7 13 41 29 76 49 106 61 134 61 151 0 8 6 30 14
48 8 18 23 62 35 98 11 36 31 98 45 137 14 40 26 92 26 116 0 31 6 49 20 62
19 17 39 19 253 16 128 -1 259 -3 292 -3 33 0 94 7 135 16 212 47 676 97 895
96 50 0 126 6 170 15 44 8 123 19 175 25 214 24 383 49 460 68 96 23 196 42
222 42 36 0 60 36 52 76 -5 26 2 37 54 91 33 34 62 74 65 90 15 75 37 125 88
203 31 47 59 92 63 100 10 21 27 50 52 85 24 34 48 85 108 227 8 18 22 60 31
93 9 33 21 74 27 90 5 17 14 46 18 65 8 34 24 84 41 125 13 32 40 108 49 140
5 17 20 62 35 102 29 79 30 77 -28 188 -27 54 -35 64 -81 97 -32 23 -49 28
-96 28 -31 0 -79 7 -106 15 -68 20 -70 20 -115 -24 -49 -47 -68 -51 -259 -51
-80 0 -161 -5 -180 -10 -19 -6 -116 -15 -215 -20 -99 -5 -225 -14 -280 -20
-57 -7 -141 -9 -195 -5 -57 4 -147 1 -225 -6 -71 -7 -146 -13 -165 -12 -19 1
-208 6 -420 12 -212 6 -418 15 -458 21 -109 15 -297 12 -372 -6 -39 -9 -81
-12 -104 -8 -49 8 -111 64 -138 123 -11 25 -23 53 -28 61 -12 21 -78 159 -96
200 -9 19 -22 48 -30 64 -9 17 -22 80 -30 140 -9 61 -22 136 -30 166 -8 30
-21 100 -30 155 -16 102 -24 125 -75 230 -16 33 -29 69 -29 80 0 23 -34 136
-49 162 -6 10 -26 53 -46 95 -19 42 -39 79 -43 82 -11 7 -35 72 -56 156 -9 36
-30 106 -46 155 -17 50 -30 107 -30 127 0 29 -6 41 -29 57 -31 22 -46 55 -54
113 -4 28 -18 49 -57 87 -67 63 -133 86 -232 79 -58 -5 -219 7 -368 27 -19 3
-64 -3 -100 -13z m220 -364 c40 -20 45 -27 48 -60 4 -47 -15 -50 -46 -8 -13
17 -27 30 -33 30 -6 0 -23 -13 -37 -30 -21 -23 -35 -30 -64 -30 -30 0 -38 4
-38 18 1 30 26 64 61 83 44 24 56 23 109 -3z m-206 -158 c8 -9 8 -14 -2 -17
-23 -9 -42 -34 -42 -58 0 -27 -18 -39 -87 -60 -71 -22 -84 -9 -63 65 15 49 34
71 72 81 42 10 107 4 122 -11z m101 -9 c8 -14 -12 -23 -36 -16 -17 6 -19 9 -8
16 18 11 36 11 44 0z m155 -4 c0 -15 -44 -39 -54 -30 -3 4 -6 15 -6 25 0 13 8
18 30 18 18 0 30 -5 30 -13z m-192 -149 c-7 -19 -38 -22 -38 -4 0 10 9 16 21
16 12 0 19 -5 17 -12z m787 -131 c0 -39 -19 -38 -23 2 -3 24 0 32 10 29 7 -3
13 -17 13 -31z m-807 -209 c2 -33 -3 -59 -18 -89 -21 -41 -22 -41 -66 -36 -65
7 -77 20 -69 81 4 28 11 55 15 59 13 15 84 37 110 34 22 -2 25 -7 28 -49z
m278 8 c10 -41 1 -71 -21 -71 -24 0 -32 42 -15 75 14 27 28 25 36 -4z m84 -32
c0 -32 -4 -44 -15 -44 -11 0 -15 11 -15 43 0 24 3 47 6 50 14 14 24 -6 24 -49z
m-182 -36 c-4 -74 -22 -84 -26 -14 -4 54 2 76 18 76 7 0 10 -23 8 -62z m804
-92 c-5 -18 -6 -18 -13 2 -5 12 -5 30 -2 39 6 15 7 15 13 -3 4 -10 5 -27 2
-38z m-1042 -37 c5 -6 6 -18 3 -25 -5 -14 -85 -28 -113 -19 -25 8 -26 40 -2
55 22 13 102 6 112 -11z m335 -49 c9 -28 -2 -40 -36 -40 -24 0 -29 4 -29 23 0
30 7 37 36 37 14 0 25 -8 29 -20z m-355 -87 c0 -10 -5 -25 -10 -33 -8 -12 -13
-13 -30 -2 -28 17 -48 15 -59 -6 -12 -23 3 -50 35 -62 37 -14 28 -30 -17 -30
-66 0 -79 12 -79 73 0 29 5 58 12 65 7 7 40 12 80 12 58 0 68 -3 68 -17z m228
-50 c-2 -30 -7 -38 -23 -38 -24 0 -33 38 -15 61 24 28 41 17 38 -23z m217 7
c18 -20 18 -21 -3 -42 -21 -21 -22 -21 -42 -3 -24 22 -25 29 -4 49 20 21 27
20 49 -4z m111 -46 c-5 -13 -10 -14 -18 -6 -6 6 -8 18 -4 28 5 13 10 14 18 6
6 -6 8 -18 4 -28z m-120 -78 c21 -16 21 -15 -33 -32 -19 -5 -43 6 -43 21 0 26
46 32 76 11z m-476 -40 c9 -11 9 -35 2 -98 -7 -55 -7 -88 0 -101 5 -11 7 -34
3 -53 -5 -32 -9 -34 -45 -34 -46 0 -51 9 -34 75 23 95 26 141 9 155 -34 28
-61 -28 -83 -175 -7 -45 -10 -50 -32 -50 -22 0 -25 5 -28 44 -2 27 2 49 11 60
8 9 17 41 20 72 3 31 13 71 21 88 16 30 19 31 80 31 43 0 67 -5 76 -14z m494
-102 c3 -7 3 -43 -1 -79 -6 -65 -24 -107 -40 -92 -9 9 -7 172 2 187 7 12 32 2
39 -16z m-764 -98 c0 -18 -7 -39 -15 -46 -8 -7 -15 -27 -15 -45 0 -33 -34 -84
-48 -70 -4 4 -1 10 6 12 7 3 12 21 12 43 0 21 6 43 15 50 8 7 15 27 15 45 0
17 3 35 7 38 14 15 23 5 23 -27z m876 -62 c-3 -8 -10 -14 -15 -14 -12 0 -22
45 -14 65 5 15 8 13 20 -10 8 -14 12 -33 9 -41z m-126 -119 c0 -16 -6 -25 -15
-25 -9 0 -15 9 -15 25 0 16 6 25 15 25 9 0 15 -9 15 -25z m-665 -10 c0 -22
-31 -33 -47 -17 -17 17 -1 44 24 40 15 -2 23 -10 23 -23z m-26 -108 c13 -17 5
-27 -24 -27 -12 0 -25 3 -28 7 -9 8 12 33 28 33 7 0 18 -6 24 -13z m1171 -7
c0 -21 -24 -28 -35 -10 -8 14 3 30 21 30 8 0 14 -9 14 -20z m-1687 -86 c12
-12 -33 -85 -51 -82 -39 7 -18 88 23 88 12 0 24 -3 28 -6z m111 -17 c11 -8 17
-23 14 -38 -2 -19 -10 -25 -37 -27 -47 -5 -57 9 -35 47 20 34 31 38 58 18z
m376 -2 c19 -23 -3 -65 -34 -65 -29 0 -39 21 -26 55 11 28 41 33 60 10z m-250
-24 c0 -5 -7 -11 -15 -15 -15 -5 -20 5 -8 17 9 10 23 9 23 -2z m-316 -110 c3
-5 -1 -11 -9 -15 -9 -3 -15 0 -15 9 0 16 16 20 24 6z m-2054 -65 c39 -14 49
-38 28 -64 -8 -9 -20 -34 -26 -54 -11 -32 -11 -41 4 -63 21 -32 34 -23 34 25
0 63 46 95 57 40 8 -43 20 -46 28 -8 10 43 61 108 86 108 22 0 25 -17 5 -39
-16 -18 -44 -89 -55 -141 -11 -50 -5 -285 7 -307 10 -16 11 -16 21 10 12 31
31 36 31 8 0 -26 18 -37 27 -15 3 9 -1 31 -10 48 -21 40 -40 195 -31 253 5 33
15 53 40 76 19 16 34 36 34 43 0 8 12 21 26 30 37 25 47 3 23 -50 -23 -50 -28
-251 -6 -244 7 3 14 31 17 74 6 80 12 94 44 94 32 0 44 -18 47 -66 4 -57 -9
-73 -32 -43 l-19 24 0 -46 c0 -44 45 -245 75 -334 45 -133 106 -248 220 -416
28 -41 55 -82 60 -93 13 -24 42 -43 52 -33 4 5 0 20 -9 35 -9 15 -27 45 -39
67 -12 22 -45 72 -73 110 -92 122 -176 323 -222 528 -15 65 -16 83 -5 112 7
19 15 76 18 125 3 50 10 93 15 96 16 10 26 -42 21 -113 -6 -77 2 -143 17 -143
6 0 10 26 11 58 1 73 19 136 42 140 15 3 17 -7 17 -90 0 -124 41 -315 107
-493 9 -22 22 -58 30 -80 34 -93 110 -252 124 -260 5 -4 9 -16 9 -28 1 -12 12
-40 25 -62 14 -22 29 -49 35 -60 6 -11 19 -33 29 -50 38 -59 22 -61 -37 -4
-35 35 -42 38 -42 21 0 -11 18 -39 40 -62 40 -42 49 -60 30 -60 -11 0 -134
113 -240 220 -92 93 -198 242 -260 368 -33 66 -60 125 -60 131 0 12 -62 61
-78 61 -19 0 -14 -19 16 -69 15 -25 38 -70 51 -99 12 -29 30 -66 39 -81 9 -16
32 -55 51 -87 19 -31 42 -65 50 -73 22 -22 111 -138 111 -145 0 -8 91 -97 143
-139 26 -21 68 -66 94 -100 50 -67 128 -144 180 -180 18 -12 33 -28 33 -34 0
-18 -35 -16 -50 2 -7 8 -19 15 -26 15 -8 0 -14 4 -14 8 0 5 -11 14 -24 20 -41
19 -96 73 -172 172 -115 148 -145 185 -155 188 -5 2 -9 10 -9 18 0 8 -7 14
-15 14 -8 0 -15 7 -15 15 0 8 -7 15 -15 15 -8 0 -15 6 -15 13 0 7 -8 20 -17
29 -10 8 -29 31 -43 49 -14 18 -36 44 -49 58 -49 54 -151 230 -165 287 -4 13
-11 24 -16 24 -6 0 -10 11 -10 24 0 33 -10 57 -21 50 -14 -8 -10 -51 6 -68 17
-17 20 -62 5 -71 -6 -3 -14 4 -19 17 -5 13 -20 34 -33 48 -16 16 -31 52 -42
100 -9 41 -22 93 -27 115 -6 22 -14 60 -18 85 -8 53 -17 70 -37 70 -20 0 -18
-33 11 -146 14 -54 25 -110 25 -124 -1 -77 54 -250 96 -307 13 -17 24 -44 24
-60 1 -53 68 -99 84 -58 9 24 21 18 52 -27 16 -24 32 -47 36 -53 5 -5 37 -50
73 -100 36 -49 102 -123 148 -164 45 -41 92 -88 104 -104 31 -42 47 -55 140
-117 83 -55 129 -109 81 -95 -13 4 -56 29 -96 56 -40 27 -77 49 -82 49 -6 0
-10 4 -10 9 0 5 -10 13 -22 16 -13 4 -99 83 -193 176 -93 93 -186 184 -206
202 -19 19 -52 61 -74 93 -21 33 -43 64 -49 69 -17 15 -100 145 -118 185 -40
88 -48 113 -48 150 0 43 -13 58 -35 40 -12 -10 -16 -9 -21 4 -7 18 -34 22 -34
6 0 -18 130 -281 173 -350 46 -74 106 -152 225 -294 45 -55 81 -104 79 -110
-8 -23 -26 -13 -96 54 -41 38 -75 70 -77 70 -2 0 -4 -9 -4 -20 0 -11 -7 -20
-15 -20 -8 0 -15 5 -15 10 0 6 -8 19 -17 29 -31 34 -43 50 -43 57 0 4 -8 13
-17 20 -13 9 -15 16 -7 24 8 8 14 7 24 -5 14 -16 30 -20 30 -6 0 7 -60 94
-107 157 -13 17 -33 48 -43 69 -6 11 -19 34 -30 50 -11 17 -25 42 -31 58 -6
15 -15 27 -20 27 -5 0 -9 8 -9 19 0 10 -6 24 -14 31 -8 6 -16 21 -18 32 -2 12
-9 23 -15 26 -18 5 -16 -33 2 -48 8 -7 15 -21 15 -32 0 -10 7 -21 15 -24 8 -4
15 -14 15 -24 0 -10 7 -23 15 -30 8 -7 15 -20 15 -30 0 -10 7 -23 15 -30 8 -7
15 -17 15 -22 0 -6 14 -27 30 -48 17 -21 30 -42 30 -48 0 -5 7 -15 15 -22 8
-7 15 -21 15 -30 0 -10 6 -20 13 -23 6 -2 9 -7 6 -11 -4 -4 -28 14 -53 39 -39
40 -47 44 -53 30 -7 -21 -9 -18 95 -136 76 -86 96 -119 73 -119 -6 0 -30 20
-55 45 -26 25 -50 45 -54 45 -12 0 -87 73 -95 93 -7 18 -27 24 -27 8 0 -5 7
-16 15 -25 8 -8 15 -18 15 -22 0 -4 21 -27 46 -51 31 -28 44 -48 40 -58 -4
-12 -10 -13 -23 -6 -64 33 -223 212 -223 249 0 11 -18 54 -39 96 -21 42 -42
88 -45 101 -4 14 -11 25 -16 25 -6 0 -10 13 -10 29 0 16 -7 36 -15 45 -8 8
-15 24 -15 35 0 11 -5 32 -11 48 -18 46 -38 123 -53 203 -15 81 -16 93 -19
189 l-2 64 35 12 c26 9 37 20 44 43 5 18 15 32 22 32 17 0 18 -37 3 -99 -7
-30 -7 -47 0 -54 15 -15 41 52 41 103 0 22 8 53 17 68 20 32 63 71 79 72 6 0
17 7 24 15 15 18 90 19 140 1z m800 -29 l75 -2 3 -37 c4 -46 16 -49 31 -8 9
28 13 30 64 30 29 0 73 -6 98 -14 95 -30 191 -46 272 -46 57 0 88 -4 93 -12 4
-7 11 -105 14 -218 4 -129 11 -213 18 -227 7 -12 12 -47 12 -78 0 -50 -3 -59
-30 -82 -34 -28 -36 -38 -15 -59 9 -9 15 -34 15 -59 0 -26 5 -45 13 -48 6 -2
9 -7 6 -11 -11 -12 -49 35 -49 62 0 15 -6 36 -13 47 -21 31 -42 378 -27 450 6
31 9 62 7 69 -7 17 -61 25 -117 17 l-45 -6 -1 -63 c-1 -58 1 -64 22 -72 12 -5
27 -17 32 -27 21 -39 52 -139 52 -167 0 -16 6 -52 14 -80 28 -100 38 -142 46
-196 10 -70 38 -186 49 -208 5 -9 17 -37 26 -62 9 -25 23 -60 31 -78 8 -18 14
-39 14 -46 0 -16 -43 -46 -66 -46 -16 0 -53 37 -54 54 0 5 -12 34 -27 65 -26
54 -75 185 -93 246 -4 17 -13 44 -18 60 -15 45 -32 114 -41 165 -4 25 -13 64
-19 88 -27 96 -32 121 -38 190 -4 40 -11 75 -15 78 -5 3 -9 -3 -9 -13 0 -10
-8 -34 -19 -53 -13 -25 -16 -42 -10 -63 13 -47 13 -150 -1 -189 -12 -32 -11
-44 3 -90 29 -95 46 -173 53 -241 4 -37 11 -70 15 -73 13 -8 11 -76 -2 -72
-21 7 -109 190 -109 227 0 7 -13 30 -29 50 -15 20 -31 53 -35 74 -4 20 -11 37
-16 37 -15 0 -12 -63 5 -103 8 -20 15 -54 15 -77 0 -24 12 -64 31 -102 58
-118 62 -127 55 -145 -7 -16 -9 -16 -27 7 -11 14 -38 63 -60 110 -50 104 -52
110 -73 185 -10 33 -25 84 -33 113 -14 44 -15 59 -4 87 9 25 9 40 2 54 -7 12
-11 114 -11 270 0 146 -4 251 -9 251 -14 0 -19 -41 -27 -213 -6 -152 -7 -159
-29 -167 -12 -5 -25 -15 -28 -23 -6 -16 6 -112 18 -139 9 -23 -3 -23 -27 -1
-13 12 -18 30 -18 68 0 35 -5 57 -15 65 -23 19 -22 328 1 372 21 41 3 59 -22
21 -17 -25 -19 -48 -19 -211 0 -140 3 -185 13 -191 9 -5 12 -24 10 -55 -3 -49
-21 -68 -26 -26 -1 14 -9 41 -16 60 -46 118 -56 321 -23 423 16 45 15 49 -3
67 -12 12 -34 20 -55 20 -25 0 -35 4 -35 16 0 13 11 15 78 10 42 -3 111 -7
152 -9z m3115 -18 c16 -16 -9 -29 -58 -30 -51 -2 -73 10 -64 36 6 13 16 15 59
9 29 -4 57 -10 63 -15z m2542 10 c-12 -7 -27 -7 -45 0 -25 9 -24 9 18 10 36 0
41 -2 27 -10z m-3532 -19 c8 -12 -53 -50 -81 -50 -12 0 -34 -12 -49 -26 -21
-20 -34 -24 -54 -19 -111 29 -147 10 -137 -72 3 -26 8 -106 12 -178 5 -104 10
-134 24 -150 13 -14 20 -44 24 -105 3 -47 9 -103 12 -126 7 -46 -5 -60 -54
-70 l-32 -6 0 175 c0 114 -5 203 -15 254 -8 43 -15 106 -15 140 0 39 -8 82
-21 117 -21 54 -23 56 -40 40 -11 -10 -19 -25 -19 -35 0 -22 -74 -74 -90 -64
-6 4 -9 17 -6 30 10 38 -11 45 -128 38 -123 -7 -129 -11 -140 -95 -4 -38 -2
-49 11 -56 10 -6 19 -30 24 -63 10 -71 11 -279 1 -279 -21 0 -36 52 -39 140
-5 124 -9 139 -38 150 -14 5 -25 14 -25 19 0 6 -20 31 -45 57 -35 36 -45 53
-45 80 0 35 -16 44 -37 23 -8 -8 -14 -5 -22 10 -15 27 -31 27 -65 0 -24 -19
-31 -20 -51 -9 -20 11 -27 10 -51 -9 -15 -11 -33 -21 -40 -21 -8 0 -19 -9 -26
-20 -7 -11 -18 -20 -25 -20 -22 0 -53 -39 -53 -65 0 -18 9 -31 29 -43 31 -18
41 -48 41 -133 0 -59 10 -109 21 -109 5 0 9 32 9 70 0 56 3 70 15 70 25 0 24
-137 -1 -156 -19 -15 -18 -111 1 -144 22 -38 19 -62 -7 -60 -54 5 -58 2 -58
-39 0 -31 -4 -41 -21 -46 -22 -7 -23 -29 0 -90 6 -16 18 -57 27 -90 9 -33 23
-77 32 -98 12 -29 13 -40 4 -49 -26 -26 -64 56 -126 267 -9 28 -22 73 -30 100
-20 68 -21 237 -1 275 12 23 15 71 15 232 0 181 2 206 19 234 30 49 74 54 531
53 322 0 419 2 475 14 81 17 350 23 360 7z m1195 -5 c0 -8 -4 -15 -9 -15 -13
0 -22 16 -14 24 11 11 23 6 23 -9z m363 -24 c4 -4 5 -15 1 -25 -5 -14 -15 -16
-53 -11 -63 9 -81 15 -81 26 0 25 108 33 133 10z m2727 5 c0 -8 -4 -17 -9 -21
-12 -7 -24 12 -16 25 9 15 25 12 25 -4z m-1700 -11 c0 -8 -9 -15 -20 -15 -11
0 -20 7 -20 15 0 8 9 15 20 15 11 0 20 -7 20 -15z m-1947 -106 c35 -96 53
-573 28 -739 -35 -234 -74 -396 -92 -384 -14 8 -11 121 6 207 8 43 15 112 15
154 0 41 5 129 11 195 10 114 3 345 -17 556 -6 56 -5 62 12 62 14 0 24 -14 37
-51z m1108 -21 c-6 -17 -11 -77 -11 -134 0 -105 -5 -134 -22 -134 -7 0 -9 51
-6 143 3 120 7 147 23 172 19 28 20 29 23 7 2 -13 -1 -37 -7 -54z m-5291 -14
c0 -41 -4 -54 -15 -54 -11 0 -15 13 -15 53 0 30 3 57 6 60 15 15 24 -8 24 -59z
m6120 51 c0 -8 -7 -15 -15 -15 -16 0 -20 12 -8 23 11 12 23 8 23 -8z m1540
-12 c0 -34 -12 -63 -26 -63 -18 0 -19 66 -1 73 22 9 27 7 27 -10z m-4147 -348
c4 -187 8 -425 8 -530 0 -172 1 -185 12 -135 7 30 17 55 22 55 6 0 11 -40 13
-94 2 -75 0 -97 -14 -112 -14 -15 -15 -32 -9 -113 7 -93 7 -96 -14 -96 -19 0
-21 6 -21 53 -1 28 -5 72 -11 97 -32 148 -49 435 -49 843 -1 346 3 382 38 375
15 -3 18 -36 25 -343z m3509 308 c23 -21 23 -55 -1 -84 l-18 -23 -22 49 c-12
27 -19 55 -17 62 7 18 36 16 58 -4z m-4051 -10 c5 -87 2 -467 -3 -476 -18 -29
-28 19 -34 163 -8 188 1 330 22 330 8 0 14 -8 15 -17z m3520 -24 c13 -28 13
-37 -1 -78 -21 -61 -50 -105 -62 -93 -13 13 23 202 38 202 6 0 17 -14 25 -31z
m-4362 -105 c1 -101 -9 -181 -20 -162 -10 16 -12 212 -2 259 7 33 7 33 14 9 4
-14 7 -61 8 -106z m3751 76 c0 -73 -24 -96 -36 -34 -7 38 10 89 26 79 6 -3 10
-24 10 -45z m-3482 -32 c-2 -38 -8 -63 -15 -66 -10 -3 -13 13 -13 56 0 32 3
62 7 65 17 18 24 2 21 -55z m5432 28 c0 -13 -7 -29 -15 -36 -8 -7 -15 -19 -15
-26 0 -8 -7 -14 -15 -14 -20 0 -19 21 3 64 20 41 42 47 42 12z m-4170 -21 c0
-16 -6 -25 -15 -25 -9 0 -15 9 -15 25 0 16 6 25 15 25 9 0 15 -9 15 -25z m965
-12 c12 -28 14 -60 10 -142 -10 -192 -15 -231 -31 -231 -12 0 -14 31 -14 183
0 163 5 227 16 227 2 0 11 -17 19 -37z m-874 -119 c-1 -77 -3 -201 -6 -276 -3
-80 -1 -148 5 -164 10 -25 12 -25 33 -11 13 8 23 27 25 45 2 22 10 33 25 38
36 12 46 35 48 114 1 120 11 174 32 178 14 3 17 -4 17 -40 0 -24 7 -52 15 -62
19 -25 19 -63 1 -82 -8 -7 -17 -44 -21 -81 -3 -38 -10 -90 -16 -116 -5 -26 -9
-67 -10 -90 0 -23 -4 -51 -8 -61 -6 -17 -10 -14 -29 18 -38 64 -46 44 -54
-120 -8 -197 -22 -332 -36 -346 -20 -20 -25 19 -17 125 5 56 8 125 8 152 -1
75 -21 242 -31 262 -11 21 -26 176 -25 253 3 197 17 382 30 403 12 19 14 -8
14 -139z m2942 91 c-2 -34 -39 -93 -50 -81 -3 3 9 62 23 114 8 30 29 3 27 -33z
m-3659 -3 c9 -17 17 -72 21 -133 12 -215 15 -230 36 -224 20 7 27 -9 9 -20
-14 -9 -12 -73 4 -125 34 -109 62 -260 52 -285 -3 -8 -11 -15 -19 -15 -15 0
-47 61 -47 90 0 11 -6 34 -14 52 -42 99 -67 268 -73 477 -5 216 0 244 31 183z
m2388 -53 c-3 -165 -53 -451 -88 -506 -13 -21 -53 -31 -66 -17 -6 5 2 35 28
104 7 19 20 80 29 135 9 55 21 111 27 125 6 14 14 57 18 96 8 65 37 150 48
139 3 -3 4 -37 4 -76z m-1016 25 c7 -46 -4 -72 -25 -60 -12 8 -15 64 -5 90 11
29 23 17 30 -30z m124 8 c0 -37 -15 -60 -24 -37 -8 21 -8 60 0 68 12 12 24 -4
24 -31z m2414 -14 c22 -30 20 -71 -4 -118 -24 -48 -56 -54 -66 -13 -6 22 14
107 33 146 7 13 22 7 37 -15z m976 -17 c0 -11 -5 -23 -11 -26 -5 -4 -15 -18
-20 -33 -7 -17 -13 -22 -20 -15 -7 7 -3 23 11 52 24 44 40 53 40 22z m-4529
-307 c1 -272 2 -254 -15 -254 -17 0 -25 95 -26 309 -1 149 8 197 32 173 5 -5
9 -108 9 -228z m2900 126 c-6 -30 -13 -93 -16 -139 -4 -55 -11 -91 -23 -107
-39 -53 -56 -8 -27 71 8 22 14 56 15 76 0 19 7 44 15 55 8 10 15 35 15 55 0
20 3 52 7 70 l7 34 8 -30 c5 -18 5 -53 -1 -85z m-2453 49 c-1 -13 -7 -23 -13
-22 -13 3 -18 30 -11 50 10 24 29 1 24 -28z m2117 19 c-4 -13 -9 -35 -12 -50
-7 -37 -33 -37 -33 0 0 28 27 72 44 72 4 0 5 -10 1 -22z m-1908 -14 c2 -5 -3
-19 -11 -29 -14 -19 -15 -19 -21 -2 -4 9 -4 24 -1 33 6 16 27 15 33 -2z m3192
-22 c-37 -72 -69 -97 -69 -53 0 19 69 96 78 87 3 -4 -1 -18 -9 -34z m-4747
-27 c3 -28 7 -85 7 -127 1 -42 6 -80 11 -83 6 -3 10 5 10 19 0 55 55 44 65
-13 14 -87 55 -160 55 -99 0 13 6 33 14 44 8 11 16 44 18 72 4 63 20 69 30 11
4 -22 12 -46 17 -53 5 -6 12 -32 16 -58 7 -44 6 -48 -14 -48 -14 0 -21 6 -21
19 0 11 -3 26 -6 35 -11 29 -24 16 -24 -24 0 -26 5 -40 13 -40 12 0 30 -53 46
-140 5 -24 14 -46 20 -48 16 -5 14 -72 -2 -72 -25 0 -77 145 -77 215 0 37 -3
45 -19 45 -10 0 -26 -11 -35 -25 -13 -20 -22 -24 -41 -19 -23 6 -25 3 -25 -25
0 -18 7 -48 15 -68 18 -43 19 -75 3 -91 -43 -43 -74 21 -124 253 -21 100 -25
319 -6 353 22 39 46 24 54 -33z m3986 -112 c-67 -135 -125 -226 -138 -218 -38
24 27 155 162 330 44 56 31 -1 -24 -112z m-2876 85 c1 -24 1 -52 0 -63 -1 -11
-2 -106 -2 -212 0 -106 -3 -199 -6 -208 -17 -43 -24 15 -23 183 1 103 -2 198
-6 211 -11 36 4 131 21 131 10 0 15 -13 16 -42z m1498 -46 c0 -93 -35 -255
-87 -407 -14 -38 -27 -79 -30 -90 -3 -11 -11 -34 -19 -52 -8 -17 -14 -35 -14
-39 0 -20 -97 -203 -107 -204 -21 0 -14 47 12 86 14 20 25 43 25 51 0 8 16 51
35 96 19 44 35 88 35 97 0 9 4 20 10 26 5 5 14 30 19 54 5 25 14 63 19 85 10
39 31 139 52 243 5 30 10 68 10 86 0 33 17 59 32 50 4 -3 8 -40 8 -82z m531
25 c-7 -17 -17 -50 -22 -72 -18 -89 -37 -140 -52 -143 -26 -5 -28 13 -6 74 12
33 23 73 26 91 3 18 11 38 19 44 8 6 14 19 14 29 0 23 11 33 24 20 7 -7 6 -20
-3 -43z m-2781 27 c0 -9 6 -30 14 -47 8 -18 16 -63 18 -102 4 -64 7 -73 39
-106 45 -46 69 -98 115 -244 20 -66 41 -124 46 -129 4 -6 8 -19 8 -29 0 -10 7
-34 16 -52 16 -35 16 -66 -1 -67 -13 -1 -123 215 -137 270 -6 23 -14 45 -19
48 -5 3 -9 17 -10 32 0 15 -11 54 -23 87 -23 63 -47 81 -70 50 -12 -16 -14
-15 -34 9 -12 16 -24 50 -28 82 -6 48 -4 58 15 78 16 17 21 35 21 72 0 28 3
54 7 57 11 12 23 7 23 -9z m1468 -81 c-2 -66 -7 -98 -15 -101 -10 -3 -13 21
-13 97 0 84 3 101 15 101 13 0 15 -15 13 -97z m544 50 c4 -83 -5 -199 -18
-214 -10 -11 -14 -44 -14 -113 0 -154 -24 -216 -164 -420 -76 -112 -111 -112
-61 -1 8 17 23 50 33 75 53 119 74 166 83 183 5 10 14 46 18 80 8 60 19 97 47
165 18 43 18 86 -1 102 -26 21 -18 64 15 88 18 14 30 32 30 46 0 43 29 51 32
9z m-136 -20 c-11 -11 -17 4 -9 23 7 18 8 18 11 1 2 -10 1 -21 -2 -24z m2082
-35 c-5 -32 -28 -35 -28 -4 0 17 5 26 16 26 10 0 14 -7 12 -22z m812 -6 c0
-19 -38 -57 -47 -48 -3 3 2 21 11 41 17 35 36 39 36 7z m-3204 -51 c-3 -20 -6
-48 -6 -62 0 -25 -37 -85 -47 -75 -4 4 14 145 23 173 2 7 10 10 20 6 12 -5 15
-14 10 -42z m2697 19 c-3 -10 -16 -26 -29 -35 -28 -18 -29 -14 -9 25 18 34 46
41 38 10z m-6813 -15 c0 -14 6 -34 13 -45 10 -17 9 -22 -2 -29 -26 -17 -41 -1
-41 43 0 24 3 46 7 49 13 14 23 6 23 -18z m2330 -32 c0 -24 -3 -33 -9 -25 -7
12 -4 62 5 62 2 0 4 -17 4 -37z m-1220 -7 c0 -13 7 -29 15 -36 8 -7 15 -23 15
-35 0 -12 7 -28 15 -35 8 -7 15 -23 15 -35 0 -12 7 -28 15 -35 8 -7 15 -20 15
-29 1 -9 14 -32 30 -51 30 -34 38 -64 21 -74 -12 -8 -81 100 -81 127 0 5 -7
15 -15 23 -8 9 -15 24 -15 33 0 10 -7 24 -15 31 -8 7 -15 22 -15 34 0 12 -7
31 -15 42 -15 20 -20 56 -9 67 12 11 24 -3 24 -27z m4045 -6 c-6 -9 -9 -9 -16
1 -10 17 0 34 13 21 6 -6 7 -16 3 -22z m-868 -57 c-17 -118 -62 -240 -78 -211
-5 8 -5 29 0 45 5 16 12 61 16 100 5 49 13 79 28 97 27 33 41 20 34 -31z
m2348 48 c3 -5 -6 -22 -19 -38 -20 -22 -27 -25 -37 -16 -10 10 -8 18 11 38 25
27 35 30 45 16z m-874 -97 c-2 -60 -29 -156 -50 -177 -6 -6 -11 -19 -11 -29 0
-10 -5 -18 -10 -18 -6 0 -13 -8 -17 -17 -14 -39 -123 -163 -143 -163 -14 0
-13 43 1 57 14 14 36 52 45 76 3 9 16 17 27 17 23 0 67 37 67 56 0 6 7 25 15
40 8 16 15 40 15 53 0 13 7 44 15 70 8 25 17 59 20 74 10 52 29 24 26 -39z
m-881 41 c11 -13 10 -27 -5 -78 -10 -34 -24 -76 -31 -94 -8 -17 -14 -40 -14
-51 0 -12 -4 -23 -9 -27 -5 -3 -12 -19 -16 -35 -4 -16 -13 -33 -20 -37 -7 -5
-15 -19 -17 -32 -4 -29 -28 -41 -28 -14 1 10 7 29 15 43 8 14 14 40 15 57 0
18 14 73 30 123 17 50 30 103 30 118 0 44 25 57 50 27z m-2814 -41 c-5 -13
-10 -14 -18 -6 -6 6 -8 18 -4 28 5 13 10 14 18 6 6 -6 8 -18 4 -28z m4225 -7
c-13 -13 -26 -3 -16 12 3 6 11 8 17 5 6 -4 6 -10 -1 -17z m489 8 c0 -8 -7 -15
-15 -15 -8 0 -15 7 -15 15 0 8 7 15 15 15 8 0 15 -7 15 -15z m-3842 -27 c-6
-18 -28 -21 -28 -4 0 9 7 16 16 16 9 0 14 -5 12 -12z m4290 -35 c-2 -20 -9
-29 -25 -31 -21 -3 -22 -2 -7 27 19 38 36 40 32 4z m-3508 -104 c0 -50 -5 -99
-11 -110 -6 -11 -14 -41 -19 -67 -11 -58 -28 -127 -42 -167 -6 -16 -13 -48
-17 -70 -7 -47 -25 -53 -29 -9 -3 28 20 150 47 259 6 22 11 56 11 75 0 57 32
180 47 180 10 0 13 -22 13 -91z m1490 84 c0 -25 -61 -174 -102 -248 -6 -11
-15 -27 -19 -35 -5 -8 -20 -39 -35 -68 -25 -51 -44 -60 -44 -22 0 10 6 31 14
47 8 15 21 44 29 63 40 93 58 133 100 212 21 41 57 73 57 51z m-5392 -104 c2
-13 11 -32 19 -41 16 -18 15 -49 -2 -49 -5 0 -11 12 -13 26 -2 14 -10 25 -18
25 -9 0 -14 11 -14 36 0 41 23 43 28 3z m7052 16 c0 -21 -92 -144 -107 -145
-16 0 -17 26 -2 35 6 4 13 15 17 25 9 22 74 100 85 100 4 0 7 -7 7 -15z
m-4793 -40 c20 -54 28 -105 15 -105 -16 0 -52 83 -52 119 0 43 18 36 37 -14z
m443 -31 c0 -22 -14 -23 -37 -2 -23 21 -30 48 -16 62 8 7 52 -43 53 -60z
m3904 22 c-4 -12 -22 -40 -41 -64 -28 -35 -38 -41 -49 -31 -23 19 13 110 50
127 28 13 49 -4 40 -32z m-5554 -57 c0 -5 7 -12 15 -15 8 -4 15 -12 15 -18 0
-7 20 -34 45 -60 46 -49 54 -66 33 -66 -16 0 -168 157 -168 174 0 8 -7 22 -16
31 -9 8 -13 23 -10 31 5 12 15 7 46 -26 22 -23 40 -46 40 -51z m2488 19 c-2
-13 -7 -23 -13 -23 -5 0 -11 10 -13 23 -2 15 2 22 13 22 11 0 15 -7 13 -22z
m2522 -3 c0 -9 -7 -18 -15 -21 -8 -4 -15 -14 -15 -24 0 -26 -19 -35 -27 -14
-4 10 0 21 8 28 9 6 18 19 22 29 8 21 27 23 27 2z m-5947 -30 c15 -19 37 -35
47 -35 11 0 20 -4 20 -10 0 -21 104 -161 156 -210 93 -88 54 -138 -49 -62
-107 80 -197 185 -197 233 0 14 -7 34 -15 45 -21 28 -19 74 4 74 3 0 19 -16
34 -35z m2287 -41 c0 -8 -7 -14 -15 -14 -15 0 -21 21 -9 33 10 9 24 -2 24 -19z
m-782 -5 c-2 -6 -8 -10 -13 -10 -5 0 -11 4 -13 10 -2 6 4 11 13 11 9 0 15 -5
13 -11z m2857 -43 c-19 -28 -35 -26 -35 5 0 11 10 23 23 28 28 11 33 -1 12
-33z m-217 23 c-2 -6 -8 -10 -13 -10 -5 0 -11 4 -13 10 -2 6 4 11 13 11 9 0
15 -5 13 -11z m3533 -12 c-13 -13 -26 -3 -16 12 3 6 11 8 17 5 6 -4 6 -10 -1
-17z m-2871 -11 c0 -8 -4 -17 -9 -21 -12 -7 -24 12 -16 25 9 15 25 12 25 -4z
m-3245 -56 c-5 -8 -11 -8 -17 -2 -6 6 -7 16 -3 22 5 8 11 8 17 2 6 -6 7 -16 3
-22z m-1026 -38 c-3 -7 -14 -4 -28 7 -15 11 -21 23 -16 31 5 9 12 7 27 -8 11
-11 19 -25 17 -30z m1269 21 c-5 -23 -23 -20 -26 4 -3 18 0 21 13 17 9 -4 15
-13 13 -21z m3662 2 c0 -8 -7 -15 -15 -15 -8 0 -15 7 -15 15 0 8 7 15 15 15 8
0 15 -7 15 -15z m-3563 -32 c7 -10 18 -27 23 -38 6 -11 19 -33 30 -50 11 -16
25 -40 31 -52 7 -13 16 -23 21 -23 4 0 8 -7 8 -15 0 -8 5 -15 10 -15 6 0 10
-7 10 -16 0 -26 -53 19 -104 89 -25 34 -50 67 -56 74 -5 6 -12 23 -16 37 -5
21 -2 26 11 26 10 0 24 -8 32 -17z m5418 8 c8 -15 -35 -35 -47 -23 -6 6 -7 15
-4 21 9 14 43 14 51 2z m-7299 -43 c12 -23 12 -29 2 -24 -7 3 -21 9 -30 12
-18 6 -24 34 -12 47 10 10 23 -1 40 -35z m2054 8 c0 -8 7 -16 15 -20 16 -6 21
-36 7 -36 -8 0 -52 54 -52 65 0 3 7 5 15 5 8 0 15 -6 15 -14z m3513 -15 c-4
-29 -64 -121 -80 -121 -15 0 -18 26 -4 34 5 3 12 18 15 32 9 34 47 85 61 81 5
-3 9 -14 8 -26z m147 3 c0 -25 -31 -64 -51 -64 -30 0 -30 15 3 53 31 36 48 40
48 11z m-4803 -26 c30 -28 31 -52 2 -43 -24 8 -59 40 -59 55 0 18 33 11 57
-12z m5283 -8 c0 -23 -32 -42 -54 -34 -23 9 -20 20 11 42 31 23 43 20 43 -8z
m-1170 -5 c0 -14 -4 -25 -9 -25 -5 0 -14 -12 -19 -27 -21 -59 -102 -120 -102
-78 0 14 66 96 83 104 5 2 12 14 17 27 12 31 30 31 30 -1z m-4240 -14 c0 -14
-5 -18 -20 -14 -11 3 -20 12 -20 19 0 8 9 14 20 14 13 0 20 -7 20 -19z m3340
-31 c0 -11 -7 -20 -15 -20 -8 0 -15 9 -15 20 0 11 7 20 15 20 8 0 15 -9 15
-20z m1003 -15 c-20 -27 -43 -33 -43 -10 0 8 6 15 14 15 8 0 17 7 20 16 3 8
10 12 16 9 6 -4 3 -15 -7 -30z m1207 -55 c0 -11 -7 -20 -15 -20 -18 0 -19 12
-3 28 16 16 18 15 18 -8z m-930 -12 c-1 -18 -25 -48 -38 -48 -21 0 -22 20 -2
40 23 23 40 26 40 8z m1435 -3 c0 -5 -10 -11 -22 -13 -16 -2 -23 2 -23 13 0
11 7 15 23 13 12 -2 22 -7 22 -13z m-234 -30 c0 -5 -7 -12 -16 -13 -23 -5 -47
6 -40 19 8 13 56 8 56 -6z m-2301 -143 c0 -13 -12 -22 -22 -16 -10 6 -1 24 13
24 5 0 9 -4 9 -8z m1645 -1 c3 -5 1 -12 -4 -15 -13 -8 -42 4 -35 15 7 12 31
12 39 0z m-3742 -298 c20 -105 100 -278 114 -245 10 24 52 13 68 -18 24 -47
76 -101 130 -136 28 -17 66 -46 85 -63 19 -18 46 -34 60 -37 14 -2 45 -11 70
-19 29 -10 86 -15 162 -15 64 0 119 -4 122 -8 3 -5 -2 -18 -10 -30 -14 -20
-24 -22 -105 -22 -70 0 -91 -3 -95 -15 -4 -10 -20 -15 -44 -15 -38 0 -64 -17
-38 -24 7 -2 36 -10 63 -19 28 -9 73 -19 102 -23 32 -4 54 -12 57 -21 9 -22
-2 -33 -34 -33 -16 0 -31 -4 -35 -10 -9 -15 70 -50 115 -50 46 0 56 -24 15
-34 -18 -5 -25 -13 -25 -31 0 -26 3 -27 75 -29 35 -1 40 -4 43 -26 2 -14 9
-31 15 -39 13 -16 125 -71 144 -71 15 0 18 36 3 45 -18 11 -6 103 32 235 23
80 99 220 135 247 34 26 94 53 120 53 18 0 85 -96 112 -160 13 -30 29 -62 37
-71 8 -8 14 -33 14 -55 0 -21 9 -68 20 -103 23 -71 16 -123 -20 -156 -24 -22
-25 -33 -3 -57 23 -26 45 -22 78 12 16 17 34 30 39 30 31 1 38 17 22 55 -21
50 -20 55 9 42 14 -7 25 -15 25 -19 0 -4 20 -17 45 -29 51 -25 57 -45 19 -59
-14 -6 -28 -19 -31 -30 -4 -17 -14 -20 -55 -20 -40 0 -57 -6 -87 -29 -34 -27
-41 -29 -131 -28 -72 1 -103 -3 -128 -16 l-33 -18 -33 36 c-36 37 -53 41 -146
27 -44 -7 -45 -8 -50 -47 -4 -34 -9 -40 -30 -43 -21 -2 -28 5 -45 39 -31 66
-55 79 -145 79 -60 0 -79 3 -84 15 -8 21 -35 19 -54 -5 -15 -18 -21 -19 -56
-9 -22 6 -57 8 -77 5 -31 -5 -42 -2 -59 16 -11 12 -20 25 -20 29 0 20 14 39
28 39 9 0 26 10 39 22 18 17 23 32 23 74 0 47 -4 57 -47 110 -53 65 -69 79
-122 109 -49 27 -91 58 -153 112 -29 25 -69 52 -88 62 -43 20 -53 31 -85 98
-16 34 -23 61 -20 76 5 16 -2 36 -19 62 -14 20 -28 53 -32 74 -3 20 -12 45
-18 56 -25 40 -39 111 -27 134 16 29 38 26 44 -6z m297 -4 c0 -10 -7 -19 -15
-19 -15 0 -21 31 -9 43 11 10 24 -3 24 -24z m1922 -89 c0 -40 5 -81 11 -91 8
-13 7 -29 -2 -61 -18 -61 -25 -73 -47 -76 -27 -4 -149 120 -140 143 5 13 13
15 38 10 18 -4 40 -13 49 -21 18 -16 49 -19 49 -4 0 19 -34 64 -79 106 -27 24
-42 45 -37 52 4 7 32 12 66 12 32 0 62 5 66 11 14 24 26 -12 26 -81z m119 -48
c-8 -52 -38 -100 -52 -85 -4 5 -1 37 7 73 22 96 22 96 39 79 11 -11 13 -26 6
-67z m-768 3 c9 -20 17 -48 17 -63 0 -36 31 -81 74 -107 20 -12 53 -38 74 -57
35 -32 56 -45 150 -92 41 -20 170 -21 223 -2 82 29 234 173 262 249 3 9 11 17
17 17 5 0 10 6 10 13 1 17 36 57 51 57 8 0 7 -6 -4 -18 -10 -10 -17 -25 -17
-33 0 -8 -5 -20 -12 -27 -11 -11 -34 -65 -46 -112 -4 -14 -20 -49 -36 -77 -21
-39 -35 -53 -51 -53 -12 0 -32 -11 -45 -25 -23 -24 -23 -25 -5 -45 10 -11 31
-20 46 -20 34 0 43 -13 28 -41 -10 -19 -17 -21 -62 -16 -39 3 -56 11 -74 32
l-24 27 -77 -12 c-42 -6 -110 -14 -150 -17 -69 -4 -74 -3 -111 26 -21 17 -43
31 -49 31 -5 0 -31 23 -58 51 -27 28 -66 68 -86 90 -21 21 -43 39 -48 39 -15
0 -29 42 -23 72 3 14 -2 46 -11 71 -25 75 5 109 37 42z m-934 -112 c39 -36 52
-55 48 -67 -13 -34 -80 5 -90 52 -4 15 -19 36 -37 47 -36 23 -54 50 -44 66 4
7 18 -1 38 -19 17 -16 55 -52 85 -79z m231 52 c0 -20 -9 -29 -45 -46 l-44 -21
-36 22 c-36 22 -38 40 -6 40 9 0 26 7 37 15 10 8 36 15 57 15 33 0 37 -3 37
-25z m379 -19 c7 -8 13 -32 13 -53 2 -36 -5 -45 -106 -147 -89 -91 -111 -108
-124 -99 -24 14 -27 51 -7 73 10 11 15 25 12 33 -7 19 1 30 90 125 77 82 100
95 122 68z m273 -95 c28 -14 48 -75 30 -93 -14 -14 -52 8 -52 30 0 10 -7 28
-16 40 -14 20 -11 48 4 40 4 -2 19 -10 34 -17z m489 -27 c10 -13 24 -15 62
-11 37 5 49 3 54 -9 9 -25 -26 -54 -66 -54 -30 0 -42 7 -68 40 -18 21 -33 41
-33 44 0 13 38 5 51 -10z m454 -16 c-9 -43 -22 -58 -51 -58 -36 0 -37 16 -3
54 41 47 63 48 54 4z m-534 -19 c21 -21 25 -44 8 -55 -15 -9 -40 18 -54 60
-12 34 -11 35 7 25 11 -6 28 -19 39 -30z m-417 -100 c46 -55 24 -80 -34 -38
-25 19 -27 25 -18 45 14 31 21 30 52 -7z m844 -2 c2 -10 -3 -17 -12 -17 -10 0
-16 9 -16 21 0 24 23 21 28 -4z m-190 -174 c2 -15 -2 -23 -11 -23 -29 0 -47
12 -47 32 0 30 54 21 58 -9z m-427 -97 c20 -17 50 -43 68 -58 17 -15 42 -28
54 -30 12 -2 20 -7 17 -13 -10 -19 -63 -6 -99 24 -20 17 -64 50 -98 74 -57 38
-74 62 -56 80 6 7 49 -22 114 -77z m298 43 c39 -14 39 -46 1 -41 -40 4 -50 10
-50 32 0 23 5 24 49 9z m-1649 -29 c0 -5 6 -10 13 -10 17 -1 49 -47 37 -55
-13 -8 -50 12 -50 27 0 6 -7 20 -17 30 -15 17 -15 18 0 18 10 0 17 -4 17 -10z
m1559 4 c30 -6 32 -9 29 -43 -3 -35 -4 -36 -38 -33 -19 2 -42 10 -51 18 -8 8
-21 14 -27 14 -18 0 -14 28 6 39 20 12 38 13 81 5z m-214 -130 c6 -12 16 -28
23 -36 11 -14 7 -28 -9 -28 -17 0 -69 53 -69 72 0 27 41 21 55 -8z m86 -244
c5 0 9 -7 9 -15 0 -17 -45 -21 -55 -5 -9 15 5 32 22 26 8 -3 19 -6 24 -6z
m-944 -32 c33 -37 36 -57 37 -195 1 -149 -8 -169 -52 -113 -29 37 -37 37 -54
3 -18 -37 -33 -39 -61 -9 -19 20 -26 42 -31 99 -4 41 -4 99 0 130 6 54 8 57
53 81 58 31 82 32 108 4z m-275 -8 c41 -32 45 -121 9 -180 -5 -8 -19 -36 -31
-62 -24 -52 -25 -53 -43 -38 -7 6 -20 16 -30 23 -35 24 -54 196 -28 246 18 33
87 40 123 11z m850 -32 c32 -27 48 -95 48 -207 0 -127 -3 -132 -85 -139 -50
-4 -57 -2 -85 26 -32 33 -36 51 -19 83 8 16 7 25 -6 39 -9 10 -15 32 -14 51 1
19 -2 46 -6 61 -6 22 -3 29 11 35 11 3 34 19 52 35 35 30 78 36 104 16z m240
-5 c39 -44 48 -81 48 -186 0 -72 -4 -108 -12 -114 -7 -6 -41 -13 -74 -17 -64
-7 -83 3 -64 34 4 7 5 29 3 50 -3 22 -1 40 6 44 15 10 14 41 -2 55 -19 15 -10
122 11 139 23 17 66 15 84 -5z m233 -28 c14 -29 21 -66 23 -132 l4 -93 -31 0
c-35 0 -43 12 -58 95 -8 42 -10 109 -4 163 3 29 46 7 66 -33z m-744 -8 c40
-55 54 -247 20 -288 -18 -22 -19 -22 -62 -6 -24 8 -55 17 -69 19 -32 4 -38 38
-10 63 23 21 25 43 8 114 -10 44 -9 57 5 86 15 31 21 35 54 35 28 -1 42 -7 54
-23z m816 -288 c24 -21 37 -114 35 -249 -4 -224 -22 -253 -160 -258 -132 -5
-125 -18 -126 239 -1 206 0 214 19 217 11 3 37 20 59 39 38 35 40 35 100 28
33 -3 66 -11 73 -16z m-409 -104 c-4 -70 -28 -72 -28 -2 0 29 3 57 7 60 14 15
24 -12 21 -58z m-120 -107 c-4 -59 -28 -63 -28 -4 0 35 4 46 16 46 12 0 14 -9
12 -42z m92 -41 c-1 -37 -26 -87 -44 -87 -7 0 4 88 15 118 13 34 29 17 29 -31z
m-800 -4 c6 -21 15 -74 20 -118 5 -44 14 -96 20 -115 5 -19 10 -50 10 -69 0
-20 7 -80 15 -136 39 -257 37 -239 18 -253 -12 -9 -47 -12 -113 -10 l-95 3 -3
45 c-2 25 3 86 12 135 8 50 25 160 36 245 22 158 40 275 46 298 7 24 23 12 34
-25z m768 -234 c-2 -19 -7 -33 -13 -32 -12 3 -19 49 -10 71 10 26 27 -2 23
-39z m2 -279 c0 -19 -5 -30 -14 -30 -20 0 -29 16 -21 40 10 32 35 25 35 -10z
m-574 -146 c-5 -13 -10 -14 -18 -6 -6 6 -8 18 -4 28 5 13 10 14 18 6 6 -6 8
-18 4 -28z m4 -95 c0 -20 -15 -26 -25 -9 -9 15 3 43 15 35 5 -3 10 -15 10 -26z
m0 -150 c0 -38 -24 -35 -28 4 -2 19 1 27 12 27 11 0 16 -10 16 -31z"/>
<path d="M2631 9120 c0 -36 4 -74 9 -85 7 -19 8 -19 15 -2 10 25 1 125 -13
139 -9 9 -12 -3 -11 -52z"/>
<path d="M2750 9112 c0 -16 6 -35 14 -42 8 -6 16 -21 18 -32 2 -12 9 -23 17
-26 16 -5 12 17 -12 83 -18 48 -37 57 -37 17z"/>
<path d="M3440 9038 c0 -45 10 -79 21 -72 17 10 6 104 -12 104 -5 0 -9 -15 -9
-32z"/>
<path d="M2810 8966 c0 -24 16 -43 27 -32 8 8 -6 56 -17 56 -6 0 -10 -11 -10
-24z"/>
<path d="M2660 8938 c0 -24 7 -56 15 -72 8 -15 15 -42 15 -60 0 -17 7 -40 15
-50 10 -13 15 -43 15 -88 0 -50 6 -78 22 -110 12 -24 26 -44 30 -46 4 -2 8
-12 8 -22 0 -10 6 -25 13 -32 7 -7 16 -21 20 -30 3 -10 11 -18 17 -18 16 0 12
30 -5 36 -8 4 -15 14 -15 24 0 10 -7 26 -16 34 -17 17 -16 57 2 63 6 2 14 -5
17 -17 3 -11 10 -20 16 -20 17 0 13 30 -4 36 -8 4 -15 11 -15 18 0 9 -25 65
-76 169 -8 16 -14 38 -14 50 0 12 -7 35 -15 51 -8 15 -15 43 -15 61 0 18 -3
40 -6 49 -12 30 -24 16 -24 -26z"/>
<path d="M3175 8918 c-9 -24 -2 -61 13 -66 14 -4 17 45 2 68 -8 12 -10 12 -15
-2z"/>
<path d="M3475 8907 c-4 -16 -3 -38 3 -50 10 -22 10 -22 16 3 4 14 3 37 -2 50
l-10 25 -7 -28z"/>
<path d="M2842 8889 c1 -12 9 -24 16 -27 9 -3 13 3 10 19 -1 12 -9 24 -16 27
-9 3 -13 -3 -10 -19z"/>
<path d="M3110 8897 c0 -23 11 -47 22 -47 14 0 5 53 -9 58 -7 2 -13 -3 -13
-11z"/>
<path d="M2786 8821 c-9 -14 2 -51 15 -51 11 0 12 30 0 49 -6 9 -11 10 -15 2z"/>
<path d="M2842 8379 c2 -7 10 -15 17 -17 8 -3 12 1 9 9 -2 7 -10 15 -17 17 -8
3 -12 -1 -9 -9z"/>
<path d="M3146 8232 c-3 -6 -1 -14 5 -17 15 -10 25 3 12 16 -7 7 -13 7 -17 1z"/>
<path d="M3897 9313 c-4 -3 -7 -19 -7 -33 0 -15 -7 -44 -15 -63 -16 -40 -22
-247 -6 -247 9 0 21 97 21 180 0 32 7 71 15 86 24 46 18 103 -8 77z"/>
<path d="M3868 8914 c-10 -9 -10 -90 -2 -133 10 -47 24 -27 23 32 -2 64 -12
111 -21 101z"/>
<path d="M4960 9264 c-6 -14 -10 -39 -10 -55 0 -24 4 -30 18 -27 26 5 37 108
11 108 -5 0 -14 -12 -19 -26z"/>
<path d="M4465 8809 c-10 -26 -1 -112 13 -117 14 -4 16 80 2 113 -7 17 -9 18
-15 4z"/>
<path d="M4491 8630 c0 -25 4 -54 9 -65 7 -19 8 -19 15 -2 9 22 0 86 -15 101
-7 7 -10 -4 -9 -34z"/>
<path d="M4820 8581 c0 -54 7 -81 21 -81 10 0 12 53 3 99 -10 48 -24 37 -24
-18z"/>
<path d="M5067 6885 c-6 -15 36 -55 59 -55 38 0 24 45 -18 59 -38 13 -35 14
-41 -4z"/>
<path d="M6002 6814 c-17 -21 -39 -68 -52 -112 -12 -42 -26 -81 -30 -87 -5 -5
-13 -35 -19 -65 -6 -30 -13 -65 -17 -77 -10 -35 29 -48 99 -33 31 6 59 16 62
21 12 18 67 9 97 -16 37 -31 58 -32 86 -2 16 17 22 36 22 68 0 25 -4 49 -8 55
-5 5 -17 32 -27 59 -29 81 -77 178 -98 203 -32 35 -79 30 -115 -14z"/>
<path d="M6043 6388 c-45 -22 -22 -61 32 -56 48 4 69 31 40 52 -23 18 -41 19
-72 4z"/>
<path d="M5568 6149 c-33 -19 -19 -129 16 -129 18 0 26 22 26 69 0 48 -18 74
-42 60z"/>
<path d="M5357 11102 c-25 -29 -31 -61 -11 -69 20 -7 54 29 54 57 0 25 -25 32
-43 12z"/>
<path d="M5250 10806 c-6 -8 -23 -16 -38 -18 -34 -4 -62 -50 -46 -75 15 -23
57 -20 91 6 18 15 40 21 75 21 61 0 75 22 34 57 -31 27 -96 32 -116 9z"/>
<path d="M5106 10578 c-9 -12 -16 -28 -16 -35 0 -7 -11 -38 -25 -69 -14 -31
-29 -80 -35 -108 -5 -28 -12 -63 -16 -78 -5 -21 -2 -29 10 -34 44 -17 93 47
115 148 11 47 3 198 -10 198 -4 0 -15 -10 -23 -22z"/>
<path d="M1850 9441 c-24 -23 -30 -38 -30 -73 -1 -24 -7 -54 -15 -68 -20 -35
-20 -205 0 -244 8 -15 15 -39 15 -51 0 -31 10 -55 22 -55 7 0 9 18 6 45 -4 32
-1 48 9 57 10 8 13 21 8 42 -12 56 -17 137 -10 164 l7 27 14 -28 c10 -17 22
-27 32 -25 14 3 17 17 19 73 1 39 3 90 5 115 3 43 2 45 -25 48 -20 2 -35 -5
-57 -27z"/>
<path d="M2045 9055 c4 -22 10 -61 14 -87 4 -25 12 -52 18 -60 6 -7 13 -25 17
-40 3 -16 11 -28 17 -28 13 0 7 60 -9 105 -7 17 -14 46 -17 65 -3 19 -15 46
-26 60 l-21 25 7 -40z"/>
<path d="M1677 8984 c-8 -8 3 -34 14 -34 11 0 12 27 0 34 -4 3 -11 3 -14 0z"/>
<path d="M1852 8905 c2 -21 9 -40 16 -43 18 -6 15 53 -4 69 -14 11 -15 8 -12
-26z"/>
<path d="M1706 8922 c-8 -13 3 -42 15 -42 11 0 11 21 0 39 -5 8 -11 9 -15 3z"/>
<path d="M1730 8848 c0 -7 4 -19 9 -27 11 -17 23 1 15 23 -7 19 -24 21 -24 4z"/>
<path d="M1882 8808 c3 -35 28 -52 28 -20 0 28 -10 52 -22 52 -5 0 -8 -14 -6
-32z"/>
<path d="M2128 8804 c-11 -10 -10 -56 2 -74 8 -12 10 -12 16 3 8 22 -8 82 -18
71z"/>
<path d="M2217 8787 c-2 -7 6 -30 19 -52 13 -22 28 -50 34 -62 11 -26 30 -31
30 -9 0 20 -46 111 -64 125 -10 9 -15 8 -19 -2z"/>
<path d="M1910 8732 c0 -12 7 -27 15 -36 8 -8 15 -21 15 -30 0 -8 6 -21 14
-28 7 -8 17 -24 20 -36 4 -12 12 -22 17 -22 14 0 11 27 -6 44 -8 8 -15 21 -15
30 0 8 -6 21 -14 29 -8 7 -16 24 -18 37 -4 29 -28 39 -28 12z"/>
<path d="M2156 8661 c-9 -14 2 -51 15 -51 11 0 12 30 0 49 -6 9 -11 10 -15 2z"/>
<path d="M2300 8626 c0 -17 14 -29 23 -20 8 8 -3 34 -14 34 -5 0 -9 -6 -9 -14z"/>
<path d="M2390 8592 c0 -12 6 -27 13 -34 8 -7 17 -26 21 -41 3 -15 11 -25 16
-22 14 9 12 31 -4 45 -8 6 -16 23 -18 37 -4 32 -28 44 -28 15z"/>
<path d="M2180 8572 c0 -10 5 -23 11 -29 13 -13 33 -47 48 -80 6 -13 15 -23
21 -23 5 0 10 -9 10 -19 0 -20 17 -37 27 -27 6 6 1 19 -27 61 -11 17 -24 39
-30 50 -5 11 -14 27 -19 35 -5 8 -12 23 -15 33 -7 22 -26 22 -26 -1z"/>
<path d="M2002 8556 c1 -10 8 -17 13 -17 15 1 12 24 -3 29 -9 3 -13 -2 -10
-12z"/>
<path d="M2032 8499 c2 -7 10 -15 17 -17 8 -3 12 1 9 9 -2 7 -10 15 -17 17 -8
3 -12 -1 -9 -9z"/>
<path d="M2452 8466 c1 -10 8 -17 13 -17 15 1 12 24 -3 29 -9 3 -13 -2 -10
-12z"/>
<path d="M2482 8411 c2 -7 7 -12 11 -12 12 1 9 15 -3 20 -7 2 -11 -2 -8 -8z"/>
<path d="M2632 8379 c2 -7 10 -15 17 -17 8 -3 12 1 9 9 -2 7 -10 15 -17 17 -8
3 -12 -1 -9 -9z"/>
<path d="M2305 8360 c-4 -6 -3 -16 3 -22 13 -13 23 4 13 21 -7 10 -10 10 -16
1z"/>
<path d="M2337 8296 c-3 -8 -2 -18 3 -21 13 -8 20 9 11 24 -6 10 -10 9 -14 -3z"/>
<path d="M2064 7395 c-4 -9 1 -32 10 -51 9 -19 16 -48 16 -63 0 -67 78 -183
172 -257 53 -41 74 -74 47 -74 -25 0 -105 -45 -146 -83 -77 -71 -183 -223
-183 -262 0 -27 33 -33 125 -21 86 12 123 25 250 93 16 9 74 59 128 112 81 78
107 98 145 107 26 7 50 10 54 7 13 -7 9 -36 -8 -54 -9 -10 -14 -25 -11 -34 11
-27 44 -16 86 30 28 30 50 45 66 45 38 0 32 -35 -15 -91 -42 -51 -49 -73 -25
-83 19 -7 97 45 127 85 60 79 74 92 94 85 10 -3 24 -14 31 -24 16 -27 -22 -96
-91 -165 -31 -30 -56 -58 -56 -61 0 -3 10 -10 21 -17 18 -9 27 -7 51 11 73 54
151 137 175 188 l25 53 46 -7 c26 -4 50 -8 55 -11 16 -9 5 -80 -18 -118 -14
-22 -28 -47 -31 -55 -4 -8 -23 -34 -42 -58 -38 -47 -33 -70 11 -58 52 13 123
108 160 216 27 79 30 81 106 78 l66 -3 -4 -50 c-2 -27 -9 -59 -17 -70 -8 -10
-14 -25 -14 -32 0 -7 -14 -35 -31 -63 -34 -55 -33 -80 3 -80 17 0 32 13 54 48
42 66 78 145 92 201 9 39 31 57 57 47 14 -5 16 -14 11 -47 -3 -22 -10 -48 -15
-57 -55 -103 -62 -125 -49 -138 11 -12 19 -9 51 17 20 17 37 35 37 40 0 5 14
31 30 57 17 27 30 56 30 65 0 33 23 67 46 67 40 0 40 -9 -2 -107 -8 -17 -14
-34 -14 -37 0 -4 -10 -20 -21 -36 -25 -34 -19 -60 14 -60 35 0 100 95 131 193
4 12 14 17 28 15 21 -3 23 -9 25 -68 2 -45 -3 -75 -14 -96 -16 -31 -13 -64 6
-64 5 0 31 18 56 40 45 39 48 40 124 40 63 0 81 4 95 18 15 18 57 34 116 46
37 8 100 64 100 89 0 12 9 33 20 47 26 34 25 43 -11 85 -30 33 -129 87 -269
145 -30 13 -62 29 -71 37 -8 7 -29 16 -46 19 -18 3 -42 17 -54 30 -41 44 -77
18 -44 -32 10 -16 14 -32 9 -42 -4 -9 -10 -48 -13 -87 -5 -53 -10 -70 -21 -70
-10 0 -20 21 -30 67 -24 105 -116 201 -128 135 -2 -10 3 -26 11 -35 20 -22 39
-100 35 -143 -2 -29 -7 -34 -27 -34 -22 0 -27 7 -39 60 -33 135 -68 194 -106
179 -21 -8 -20 -10 9 -68 19 -37 25 -65 25 -113 l0 -63 -44 0 -43 0 -6 58 c-2
32 -9 67 -14 78 -6 10 -18 37 -29 59 -28 61 -64 105 -86 105 -38 0 -34 -23 17
-120 18 -34 24 -61 24 -112 1 -36 -3 -68 -9 -70 -5 -1 -38 -1 -72 2 l-63 5 -6
70 c-8 105 -55 191 -132 238 -45 29 -66 -2 -27 -38 39 -35 70 -119 70 -187 0
-37 -5 -69 -12 -76 -7 -7 -34 -12 -60 -12 l-48 0 0 47 c0 79 -35 163 -92 222
-28 28 -59 51 -69 51 -27 0 -24 -36 5 -63 48 -45 66 -88 66 -158 0 -70 -10
-89 -47 -89 -26 0 -43 26 -43 67 0 44 -44 126 -76 144 -57 32 -71 0 -28 -62
31 -45 36 -102 11 -126 -25 -25 -69 -7 -83 35 -13 41 -59 95 -76 90 -20 -7
-21 -43 -3 -78 20 -39 11 -53 -29 -47 -89 14 -135 49 -176 133 -30 61 -124
159 -201 209 -37 25 -73 45 -79 45 -6 0 -21 7 -34 15 -12 8 -43 18 -69 21 -39
6 -48 4 -53 -11z"/>
<path d="M9900 7401 c-14 -5 -34 -13 -45 -19 -11 -6 -27 -13 -35 -17 -87 -35
-226 -165 -273 -254 -46 -86 -82 -113 -174 -128 -38 -6 -41 6 -19 70 12 33 12
38 -3 46 -10 6 -23 6 -33 0 -22 -12 -58 -72 -58 -97 0 -22 -39 -37 -71 -27
-16 5 -19 16 -19 59 0 45 4 57 30 82 33 33 37 46 15 64 -12 10 -20 9 -42 -6
-47 -30 -75 -82 -91 -169 -6 -32 -12 -41 -32 -43 -34 -5 -50 22 -50 84 0 66
13 98 63 151 34 36 38 44 27 58 -20 24 -32 19 -82 -32 -49 -51 -78 -100 -78
-132 0 -11 -4 -23 -10 -26 -5 -3 -10 -31 -10 -61 l0 -54 -50 0 c-45 0 -52 3
-60 26 -24 62 -3 168 47 233 39 51 32 71 -16 51 -64 -26 -141 -175 -141 -272
l0 -39 -72 3 -73 3 -3 38 c-4 44 21 123 56 180 27 45 26 71 -5 75 -40 6 -97
-92 -123 -213 l-17 -80 -38 -3 c-21 -2 -42 1 -47 6 -13 13 19 172 39 194 16
18 12 48 -6 48 -21 0 -61 -47 -77 -90 -9 -25 -19 -70 -23 -100 -6 -53 -7 -55
-36 -55 l-30 0 2 68 c2 50 8 78 24 103 39 63 4 87 -47 32 -45 -51 -58 -78 -64
-138 -3 -39 -9 -55 -20 -55 -17 0 -25 24 -38 115 -7 51 -7 68 4 81 19 21 18
48 -2 56 -9 3 -28 -7 -49 -27 -19 -18 -38 -29 -45 -25 -6 4 -28 -4 -48 -18
-20 -13 -53 -30 -72 -37 -32 -12 -94 -40 -130 -59 -8 -4 -33 -16 -55 -26 -84
-39 -145 -124 -101 -141 8 -3 17 -21 20 -39 7 -38 64 -92 106 -101 56 -11 104
-29 125 -46 18 -14 41 -18 97 -18 73 0 74 0 113 -40 21 -22 45 -40 51 -40 21
0 26 37 10 69 -13 23 -14 45 -9 97 12 101 25 96 77 -26 27 -62 81 -120 112
-120 34 0 35 11 6 60 -33 55 -53 104 -59 148 -5 32 -4 33 23 30 22 -2 30 -9
34 -33 10 -45 70 -156 102 -187 52 -52 90 -27 49 31 -26 36 -52 106 -58 154
-5 37 -4 38 23 35 24 -2 32 -11 47 -53 41 -105 52 -132 85 -187 26 -46 38 -58
57 -58 21 0 25 5 25 29 0 17 -5 33 -10 36 -21 13 -79 165 -80 208 0 27 0 27
69 27 68 0 69 0 90 -36 12 -19 21 -43 21 -52 1 -9 12 -35 25 -57 14 -22 28
-47 32 -55 29 -64 119 -121 147 -93 3 4 -7 20 -22 37 -60 64 -116 176 -110
222 3 25 8 29 48 36 42 8 47 6 67 -19 13 -16 23 -34 23 -42 0 -15 131 -149
172 -175 21 -14 31 -15 47 -6 29 15 27 22 -19 61 -52 44 -110 130 -110 164 0
17 7 28 23 34 31 12 42 5 82 -49 38 -52 137 -126 154 -116 18 11 13 41 -10 62
-31 27 -71 93 -64 104 15 24 55 9 93 -35 45 -51 82 -61 82 -21 0 13 -7 29 -15
36 -17 14 -18 20 -7 37 6 10 19 9 61 -2 45 -12 66 -27 150 -108 53 -51 110
-101 126 -110 129 -68 173 -85 260 -95 122 -14 139 2 90 83 -14 22 -28 47 -31
55 -11 25 -75 102 -118 144 -23 21 -69 51 -104 67 -68 32 -69 36 -17 79 55 45
126 124 148 165 31 57 67 207 55 223 -11 13 -39 14 -78 3z"/>
<path d="M3095 6223 c-110 -26 -210 -83 -145 -83 26 0 26 -26 1 -40 -30 -16
-39 -12 -33 15 9 48 -33 23 -90 -53 -87 -114 -100 -176 -98 -461 1 -190 3
-216 18 -227 16 -11 17 -7 20 56 2 44 8 72 17 80 20 17 23 4 27 -103 3 -79 5
-90 27 -106 25 -19 26 -56 1 -56 -17 0 -19 -75 -5 -236 6 -69 5 -98 -4 -103
-7 -5 -9 -21 -5 -47 7 -41 -4 -51 -25 -25 -7 9 -17 82 -24 174 l-11 159 -19
-36 c-28 -52 -31 -400 -4 -509 10 -40 22 -81 27 -90 4 -9 11 -24 15 -32 18
-46 88 -130 107 -130 5 0 27 -12 49 -26 61 -38 124 -54 218 -54 144 0 205 16
290 74 72 50 139 124 140 157 1 8 6 20 12 26 28 28 52 399 29 458 l-10 26
-147 -3 -148 -3 -5 -150 c-7 -191 -20 -238 -71 -271 -72 -45 -134 -23 -174 63
l-25 52 0 543 c0 516 1 545 20 586 21 47 78 81 136 82 44 0 95 -38 122 -90 40
-81 25 -225 -31 -288 l-21 -22 21 -21 c60 -61 250 -40 302 33 48 69 65 237 36
365 -21 91 -37 124 -85 176 -97 106 -195 148 -340 146 -52 -1 -104 -3 -115 -6z
m-253 -284 c-5 -48 -62 -77 -62 -32 0 21 40 65 54 60 6 -2 10 -15 8 -28z m-41
-142 c-1 -12 -15 -9 -19 4 -3 6 1 10 8 8 6 -3 11 -8 11 -12z m77 -118 c3 -38
-10 -65 -27 -55 -12 8 -15 78 -4 90 14 14 28 -2 31 -35z m-63 -991 c3 -7 1
-26 -4 -43 l-8 -30 -12 29 c-13 31 -9 56 9 56 6 0 13 -6 15 -12z"/>
<path d="M8765 6213 c-79 -24 -126 -52 -179 -107 -65 -68 -95 -117 -112 -183
-18 -71 -17 -83 4 -55 23 30 32 19 32 -38 0 -25 4 -50 8 -56 8 -8 -2 -203 -15
-304 -6 -45 -6 -45 -15 -15 -5 17 -10 89 -11 160 -1 81 -6 129 -12 128 -6 -2
-11 -184 -13 -513 -2 -467 -1 -519 17 -613 10 -56 25 -118 33 -137 28 -76 136
-150 251 -171 147 -28 322 -19 392 19 43 24 108 73 123 94 7 9 19 23 26 31 15
15 37 62 64 137 14 39 16 126 19 655 5 703 4 712 -73 814 -63 84 -107 113
-229 152 -75 24 -236 25 -310 2z m-115 -177 c0 -8 -4 -18 -10 -21 -5 -3 -10
-17 -10 -29 0 -13 -7 -29 -15 -36 -8 -7 -15 -23 -15 -35 0 -12 -6 -28 -14 -35
-8 -6 -16 -26 -18 -43 -4 -43 -22 -41 -26 4 -2 23 2 40 12 49 9 7 16 22 16 34
0 22 28 85 50 111 16 19 30 19 30 1z m369 -127 c52 -38 54 -72 44 -685 -8
-500 -10 -552 -27 -579 -17 -30 -82 -65 -119 -65 -34 0 -95 40 -118 77 -23 36
-23 44 -27 362 -4 314 -4 550 2 733 2 83 4 88 39 132 21 24 47 47 60 49 44 10
116 -2 146 -24z m-455 -611 c9 -36 7 -86 -4 -93 -22 -13 -40 17 -40 66 0 41 3
49 19 49 11 0 21 -9 25 -22z m76 -792 c0 -17 -27 -29 -35 -16 -4 6 -3 15 0 20
9 15 35 12 35 -4z"/>
<path d="M3853 6198 c-13 -30 0 -253 17 -291 11 -23 11 -29 -2 -40 -19 -14
-36 -147 -20 -147 6 0 12 5 14 11 7 20 48 -1 54 -27 4 -17 1 -31 -11 -44 -16
-18 -17 -37 -13 -184 5 -162 5 -165 -16 -168 -20 -3 -21 -10 -27 -193 -4 -104
-7 -326 -8 -491 -1 -267 1 -303 15 -308 28 -11 302 -7 309 4 4 6 7 177 6 381
0 206 4 381 9 394 9 25 10 25 149 25 101 0 142 -3 148 -12 4 -7 10 -188 13
-403 l5 -390 160 0 160 0 0 945 0 945 -154 3 c-85 1 -158 -1 -163 -6 -4 -4 -8
-180 -8 -390 l0 -383 -23 -8 c-13 -5 -78 -11 -146 -12 -100 -3 -124 -1 -131
11 -13 24 -20 198 -22 490 -1 231 -3 278 -16 293 -13 14 -32 17 -119 17 l-103
0 0 -87 c0 -85 -10 -126 -27 -109 -4 4 -10 48 -13 98 -5 93 -18 118 -37 76z
m748 -717 c11 -48 4 -68 -16 -51 -9 7 -14 31 -13 62 0 58 15 53 29 -11z m-18
-173 c7 -57 -5 -183 -18 -183 -6 0 -11 46 -13 113 -2 90 0 112 11 112 9 0 16
-15 20 -42z m-663 -122 c0 -14 -5 -28 -10 -31 -13 -8 -24 20 -16 40 9 24 26
17 26 -9z"/>
<path d="M7447 6211 c-61 -5 -91 -11 -97 -21 -13 -19 -13 -311 0 -330 8 -13
10 -13 14 0 3 8 6 24 8 35 2 11 8 20 13 20 17 0 17 -71 1 -119 -16 -45 -25
-234 -13 -254 4 -5 -1 -30 -11 -54 -18 -41 -19 -74 -14 -610 5 -540 6 -567 23
-571 19 -5 291 1 296 7 2 2 4 176 6 388 2 396 4 418 42 418 19 0 42 -41 47
-85 3 -22 11 -56 18 -75 29 -78 38 -107 49 -150 6 -25 18 -67 27 -95 8 -27 19
-66 23 -85 4 -19 12 -44 18 -55 5 -11 17 -36 25 -55 42 -98 61 -130 100 -168
23 -23 47 -42 53 -42 6 0 16 -5 22 -11 24 -24 118 -49 184 -49 58 0 71 4 108
31 44 31 49 51 15 58 -40 7 -100 77 -130 151 -3 8 -12 30 -20 48 -38 88 -59
144 -74 197 -9 31 -53 163 -75 225 -31 88 -37 107 -45 139 -11 44 -6 54 43 86
50 32 126 131 139 183 5 20 14 55 20 77 7 24 11 121 10 239 -1 212 -9 256 -58
337 -36 58 -110 126 -171 157 -61 31 -375 48 -596 33z m19 -234 c6 -18 -10
-92 -21 -92 -13 0 -28 53 -21 80 7 26 33 34 42 12z m396 -63 c80 -27 82 -32
86 -225 5 -198 1 -223 -37 -269 -28 -34 -31 -35 -114 -38 -136 -6 -127 -25
-127 267 0 190 3 251 13 259 7 6 37 12 67 15 30 2 58 4 61 5 3 1 26 -5 51 -14z"/>
<path d="M942 4752 c-9 -7 -12 -61 -10 -238 l3 -229 95 0 95 0 0 30 c0 29 -2
30 -55 35 l-55 5 0 65 0 65 42 3 c73 5 69 68 -5 74 l-37 3 0 55 0 55 55 5 55
5 0 35 0 35 -85 3 c-47 1 -91 -2 -98 -6z"/>
<path d="M1363 4738 c-68 -76 -57 -146 41 -254 62 -68 74 -99 52 -129 -20 -28
-49 -9 -56 36 -4 30 -9 34 -39 37 -46 5 -54 -6 -42 -59 14 -63 48 -89 115 -89
55 0 72 9 100 50 37 56 10 135 -80 233 -60 64 -68 97 -30 115 30 13 46 -1 46
-40 0 -36 22 -45 55 -24 37 25 34 69 -9 112 -29 29 -41 34 -83 34 -39 0 -54
-5 -70 -22z"/>
<path d="M1742 4748 c-27 -27 -6 -68 34 -68 13 0 26 -6 30 -12 5 -7 9 -96 9
-198 2 -183 2 -185 24 -188 45 -7 48 6 44 192 -3 165 -2 177 17 196 11 11 29
20 39 20 28 0 39 40 15 57 -23 17 -195 18 -212 1z"/>
<path d="M10274 4753 c-12 -2 -35 -16 -53 -31 l-32 -27 -1 -184 -1 -184 27
-24 c22 -18 39 -23 85 -23 49 0 61 4 82 26 23 24 24 33 28 177 3 168 -6 226
-42 249 -27 18 -64 26 -93 21z m44 -85 c18 -18 17 -288 -2 -313 -17 -24 -43
-14 -57 22 -15 41 -8 266 10 286 16 20 32 22 49 5z"/>
<path d="M9915 4738 c-57 -33 -75 -113 -33 -142 12 -9 31 -16 40 -16 16 0 17
6 12 39 -5 33 -3 41 14 50 16 8 25 7 43 -8 22 -18 22 -20 9 -62 -8 -23 -33
-65 -55 -92 -81 -100 -85 -107 -85 -170 l0 -58 103 3 c101 3 102 3 102 28 0
23 -4 25 -60 30 -56 5 -60 7 -57 28 1 13 21 49 45 80 68 92 77 113 77 185 0
61 -2 67 -31 91 -33 28 -88 34 -124 14z"/>
<path d="M10580 4730 c-6 -12 -25 -26 -41 -32 -33 -11 -40 -45 -11 -55 9 -4
20 -11 25 -17 4 -6 7 -85 5 -176 l-2 -165 40 0 39 0 0 230 c0 229 0 230 -22
233 -14 2 -26 -4 -33 -18z"/>
<path d="M10791 4721 c-30 -28 -31 -31 -31 -123 0 -120 13 -138 95 -138 l55 0
0 -40 c0 -28 -7 -47 -21 -61 l-22 -22 -31 38 c-39 46 -69 46 -74 -2 -2 -21 4
-42 19 -63 21 -28 27 -30 84 -30 53 0 65 4 86 26 24 25 24 29 24 211 l0 185
-30 24 c-45 36 -113 34 -154 -5z m114 -120 c0 -67 -15 -91 -49 -78 -12 5 -16
20 -16 70 0 72 4 79 40 75 24 -3 25 -6 25 -67z"/>
<path d="M2059 4349 c-15 -29 3 -69 31 -69 28 0 46 40 31 69 -7 11 -20 21 -31
21 -11 0 -24 -10 -31 -21z"/>
<path d="M4612 4148 c-6 -8 -11 -96 -13 -218 -5 -294 8 -1668 16 -1680 8 -13
784 -13 805 0 18 11 25 257 8 277 -8 10 -67 13 -248 13 l-237 0 -7 46 c-11 87
-7 439 6 452 8 8 64 12 184 12 144 0 175 3 188 16 22 22 23 265 2 283 -9 8
-79 15 -193 19 -176 7 -178 7 -191 32 -10 20 -12 66 -7 219 4 107 11 203 16
213 9 17 28 18 232 18 122 0 227 4 233 8 15 10 27 244 14 278 l-11 27 -197 -8
c-198 -8 -543 -8 -573 1 -9 2 -21 -1 -27 -8z m92 -82 c8 -34 -4 -86 -20 -86
-14 0 -17 10 -15 45 5 64 24 86 35 41z m-34 -247 c0 -81 -3 -99 -15 -99 -12 0
-15 18 -15 98 0 54 3 102 6 105 17 17 24 -13 24 -104z m30 -1379 c0 -11 -7
-20 -15 -20 -8 0 -15 9 -15 20 0 11 7 20 15 20 8 0 15 -9 15 -20z m84 -53 c-3
-9 -13 -17 -21 -17 -8 0 -12 3 -10 8 2 4 7 16 11 26 4 13 10 16 17 9 5 -5 7
-17 3 -26z m49 -44 c-7 -2 -13 -13 -13 -24 0 -10 -7 -19 -15 -19 -8 0 -15 3
-15 7 0 11 33 43 44 42 6 0 6 -3 -1 -6z"/>
<path d="M5900 4144 c-87 -29 -136 -58 -196 -118 -115 -115 -127 -163 -126
-499 1 -137 4 -252 6 -256 3 -4 1 -66 -4 -137 -4 -71 -5 -133 0 -137 4 -5 5
-39 2 -77 -3 -46 1 -85 11 -121 9 -30 19 -94 22 -144 8 -142 19 -212 38 -233
9 -10 17 -32 17 -48 0 -49 95 -134 149 -134 12 0 32 -5 44 -12 48 -25 247 -6
288 29 8 7 20 13 26 13 6 0 23 14 37 31 30 36 49 33 74 -11 21 -36 30 -40 109
-45 52 -4 64 -1 72 13 6 11 11 217 12 491 2 405 0 474 -13 487 -11 11 -38 15
-109 13 -52 0 -138 0 -191 1 -118 2 -118 2 -118 -139 0 -117 8 -131 75 -131
75 0 78 -9 73 -190 -4 -127 -9 -164 -25 -200 -32 -71 -54 -85 -133 -85 -78 0
-94 10 -122 73 -18 41 -19 71 -18 570 2 589 6 640 54 684 27 25 38 28 101 28
84 0 103 -15 122 -95 19 -79 1 -165 -43 -204 -41 -38 -42 -52 -6 -72 53 -31
136 -43 189 -29 118 31 164 96 171 240 6 130 -30 245 -103 327 -47 54 -88 79
-185 114 -67 24 -231 25 -300 3z m-210 -760 c0 -13 -4 -24 -9 -24 -13 0 -24
37 -16 50 10 16 25 1 25 -26z m-2 -280 c-2 -27 -7 -49 -13 -49 -11 0 -19 79
-10 103 11 30 26 -5 23 -54z m-30 -427 c2 -10 -3 -17 -12 -17 -18 0 -29 16
-21 31 9 14 29 6 33 -14z m60 -195 c-2 -15 -7 -26 -13 -25 -12 3 -19 49 -10
71 6 16 7 16 16 -1 6 -10 9 -30 7 -45z m57 -172 c-5 -8 -11 -8 -17 -2 -6 6 -7
16 -3 22 5 8 11 8 17 2 6 -6 7 -16 3 -22z"/>
<path d="M6795 4151 l-80 -6 -3 -149 c-2 -143 8 -205 23 -136 4 17 13 34 21
37 16 6 18 58 5 116 -10 44 5 47 27 6 25 -48 -7 -192 -48 -212 -28 -14 -35
-36 -25 -75 6 -25 8 -26 19 -9 16 21 26 22 26 1 0 -9 -12 -28 -26 -41 -24 -22
-25 -28 -19 -76 3 -29 8 -89 11 -135 4 -66 9 -84 24 -92 17 -9 18 -23 18 -145
-1 -97 3 -139 12 -150 10 -12 10 -19 2 -27 -7 -7 -12 -29 -12 -49 0 -20 -7
-42 -15 -49 -8 -7 -15 -29 -15 -50 0 -25 -5 -40 -15 -44 -13 -5 -15 -46 -13
-313 l3 -308 160 0 160 0 3 403 2 402 29 0 c32 0 30 2 77 -160 9 -30 22 -73
29 -95 15 -51 39 -131 66 -223 11 -39 25 -75 30 -78 5 -3 9 -12 9 -20 0 -25
60 -139 91 -172 82 -87 257 -138 346 -100 30 13 73 47 73 58 0 4 -17 15 -39
24 -21 10 -48 30 -58 45 -38 51 -117 226 -143 316 -9 32 -54 166 -75 225 -46
131 -65 199 -58 217 3 7 22 22 42 34 40 22 106 101 133 159 32 68 43 161 43
345 -1 236 -23 311 -117 405 -70 69 -111 94 -178 108 -65 13 -430 23 -545 13z
m461 -307 c48 -32 54 -59 54 -253 l0 -179 -33 -44 -33 -43 -101 -3 -100 -3 -7
93 c-8 131 -9 410 -1 431 6 14 21 17 101 17 71 0 101 -4 120 -16z m242 -261
c5 -18 -28 -29 -38 -12 -5 7 -6 17 -3 22 7 12 35 5 41 -10z m-40 -71 c2 -7 -4
-15 -13 -18 -20 -8 -27 -1 -19 20 7 18 25 17 32 -2z m-88 -163 c0 -26 -29 -69
-46 -69 -21 0 -17 37 8 70 23 31 38 31 38 -1z"/>
<path d="M8100 4138 c-56 -18 -76 -32 -139 -95 -61 -61 -71 -76 -61 -88 17
-20 5 -48 -17 -41 -14 4 -22 -4 -35 -37 -22 -53 -20 8 -22 -722 l-1 -620 29
-80 c49 -138 124 -189 326 -220 111 -18 270 -6 324 23 91 50 144 97 170 149
10 21 23 46 28 57 39 75 41 105 45 711 4 534 3 597 -13 665 -22 95 -45 140
-103 199 -51 52 -88 74 -176 102 -86 27 -265 26 -355 -3z m-4 -142 c-29 -32
-48 -16 -19 17 27 32 38 38 41 23 2 -8 -8 -26 -22 -40z m244 -131 c39 -11 77
-53 85 -93 8 -36 8 -620 2 -973 -3 -153 -6 -181 -24 -215 -38 -74 -157 -85
-219 -19 -29 31 -32 41 -38 127 -10 128 -11 1003 -2 1055 9 48 56 101 108 119
33 12 40 12 88 -1z m-220 -50 c0 -8 -7 -15 -15 -15 -8 0 -15 7 -15 15 0 8 7
15 15 15 8 0 15 -7 15 -15z m-60 -85 c0 -11 -7 -20 -15 -20 -15 0 -21 21 -8
33 12 13 23 7 23 -13z m-120 -80 c0 -37 -26 -65 -46 -49 -20 16 -17 39 7 66
26 27 39 22 39 -17z m-32 -284 c5 -26 -10 -37 -32 -21 -11 9 -16 20 -12 30 8
21 40 15 44 -9z m58 -742 c4 -15 8 -59 9 -98 1 -39 6 -82 10 -96 l8 -25 -26
23 c-16 16 -27 38 -30 65 -3 23 -11 60 -18 83 -15 48 -8 74 20 74 14 0 23 -9
27 -26z"/>
<path d="M3384 4136 c-18 -13 -19 -31 -22 -303 -2 -158 -3 -304 -3 -323 0 -19
2 -289 5 -600 4 -574 7 -648 29 -662 20 -13 231 -10 245 4 15 15 16 623 2 788
-12 143 -2 410 16 410 14 0 18 -13 28 -80 10 -70 52 -246 71 -300 16 -46 41
-133 55 -195 19 -85 28 -119 38 -150 6 -16 18 -57 28 -90 9 -33 22 -76 29 -95
29 -83 37 -108 51 -155 8 -27 19 -66 24 -85 5 -19 16 -40 25 -46 17 -12 303
-12 324 0 8 5 11 258 11 941 l0 934 -52 6 c-29 3 -96 5 -148 3 l-95 -3 -8
-155 c-4 -85 -7 -175 -5 -200 7 -117 2 -720 -6 -722 -10 -3 -30 61 -45 142
-17 89 -66 276 -107 409 -8 25 -14 53 -14 64 0 31 -50 251 -72 312 -5 17 -14
52 -19 79 -4 27 -13 54 -18 59 -12 12 -203 29 -213 19 -4 -4 -8 -47 -10 -95
-4 -102 -22 -122 -25 -27 -2 36 -5 80 -8 98 -6 30 -8 32 -49 32 -23 0 -51 -6
-62 -14z m82 -120 c-3 -22 -10 -70 -16 -106 -5 -36 -7 -101 -4 -145 7 -89 -7
-148 -29 -126 -16 16 -15 308 1 348 6 15 16 41 22 56 15 42 34 23 26 -27z
m-26 -522 c0 -41 -4 -54 -15 -54 -11 0 -15 13 -15 53 0 30 3 57 6 60 15 15 24
-8 24 -59z m6 -140 c-3 -9 -6 -20 -6 -25 0 -5 -7 -9 -15 -9 -15 0 -21 31 -8
43 13 14 35 7 29 -9z m548 -798 c13 -29 29 -57 35 -60 6 -4 11 -17 11 -29 0
-12 7 -35 15 -51 19 -35 20 -89 3 -84 -7 3 -14 14 -16 26 -2 11 -10 26 -18 32
-8 7 -14 25 -14 41 0 26 -5 34 -45 67 -20 17 -19 112 1 112 2 0 15 -24 28 -54z"/>
<path d="M868 4023 c-5 -7 -8 -20 -6 -30 3 -17 36 -18 639 -21 555 -2 638 0
649 13 7 8 10 21 6 30 -5 13 -87 15 -641 17 -486 2 -639 0 -647 -9z"/>
<path d="M10402 4032 c-553 -2 -633 -4 -638 -17 -4 -8 -1 -22 6 -30 11 -13 94
-15 649 -13 l636 3 3 21 c2 11 -3 25 -10 30 -8 5 -276 8 -646 6z"/>
<path d="M9419 2212 c-23 -11 -149 -105 -149 -111 0 -3 25 -37 55 -76 31 -38
85 -109 122 -157 37 -49 73 -88 78 -88 12 0 96 61 135 98 21 19 25 32 25 81 0
52 -5 66 -37 113 -20 29 -57 73 -82 97 -36 35 -52 44 -88 47 -23 2 -50 0 -59
-4z m57 -79 c28 -18 102 -111 127 -159 14 -28 14 -32 -5 -62 -11 -18 -27 -32
-36 -32 -15 0 -182 207 -182 225 0 11 43 44 58 45 7 0 24 -7 38 -17z"/>
<path d="M2463 2133 c-17 -27 -38 -57 -47 -68 -67 -85 -146 -197 -146 -208 0
-13 12 -24 107 -90 72 -50 116 -51 164 -1 29 30 34 42 34 82 -1 50 7 62 42 62
33 0 73 54 73 99 0 30 -7 44 -37 72 -63 58 -121 99 -140 99 -11 0 -31 -20 -50
-47z m119 -70 c25 -22 24 -79 -1 -93 -30 -15 -47 -12 -77 13 l-27 24 27 36
c31 41 50 46 78 20z m-99 -146 c33 -28 34 -53 5 -84 -28 -30 -63 -29 -94 2
l-25 25 28 40 c32 46 49 49 86 17z"/>
<path d="M9023 1940 c-13 -5 -39 -24 -58 -41 -31 -29 -35 -37 -35 -83 1 -36 8
-63 25 -91 14 -22 29 -50 35 -62 16 -37 103 -121 133 -129 41 -10 100 13 139
53 29 30 33 40 33 86 -1 43 -8 65 -38 114 -21 34 -57 83 -80 108 -36 40 -48
47 -87 51 -25 2 -55 0 -67 -6z m83 -92 c17 -18 41 -51 54 -73 13 -22 27 -42
31 -45 3 -3 12 -22 20 -43 17 -47 5 -71 -38 -75 -27 -3 -36 4 -75 55 -25 32
-48 65 -52 73 -4 8 -13 26 -21 40 -18 31 -19 72 -3 88 21 21 53 13 84 -20z"/>
<path d="M2849 1869 c-13 -23 -32 -53 -41 -68 -10 -14 -21 -33 -25 -41 -4 -8
-25 -42 -47 -75 -51 -76 -66 -102 -66 -114 0 -8 25 -26 125 -88 41 -25 60 -31
73 -21 29 24 1 59 -70 90 -20 8 -25 53 -7 63 5 4 14 18 19 31 10 25 53 34 65
14 3 -5 22 -17 41 -26 31 -15 37 -15 45 -3 16 25 10 38 -29 63 -60 37 -63 46
-36 89 24 37 47 47 59 26 4 -5 17 -14 28 -20 12 -5 29 -14 39 -21 13 -9 20 -9
32 1 18 15 22 51 5 51 -6 0 -31 14 -56 30 -24 17 -48 30 -52 30 -5 0 -14 7
-21 15 -23 28 -55 18 -81 -26z"/>
<path d="M8623 1699 c-18 -5 -49 -25 -68 -45 -28 -28 -35 -42 -35 -74 0 -22 4
-48 9 -58 5 -9 19 -39 32 -65 60 -122 112 -177 168 -177 26 0 96 34 125 62 30
27 29 117 -3 178 -37 73 -75 135 -96 158 -24 25 -87 35 -132 21z m91 -113 c20
-30 36 -58 36 -62 0 -4 6 -15 13 -23 19 -23 41 -97 34 -115 -9 -23 -39 -35
-64 -25 -32 12 -133 182 -133 224 0 33 20 55 49 55 24 0 35 -10 65 -54z"/>
<path d="M3174 1543 c-65 -70 -127 -134 -136 -142 -24 -20 -23 -48 1 -61 28
-14 38 -13 60 9 37 37 52 40 90 19 57 -31 63 -40 51 -73 -15 -38 -5 -61 32
-74 33 -12 48 -3 48 29 0 14 13 75 45 210 28 116 37 161 34 164 -25 18 -80 46
-91 46 -8 0 -68 -57 -134 -127z m116 -28 c0 -44 -25 -105 -42 -105 -16 1 -48
24 -48 35 0 12 73 105 82 105 4 0 8 -16 8 -35z"/>
<path d="M8295 1532 c-6 -5 -36 -20 -68 -33 -76 -30 -85 -42 -65 -82 17 -35
41 -89 83 -182 31 -70 67 -149 70 -153 3 -4 75 28 75 33 0 3 -13 34 -30 68
-16 35 -30 71 -30 79 0 18 31 48 51 48 35 0 54 55 24 66 -8 4 -33 -3 -55 -14
-38 -18 -42 -19 -61 -3 -11 9 -22 33 -26 53 -5 31 -2 39 13 43 54 17 85 39 82
59 -3 23 -45 34 -63 18z"/>
<path d="M3658 1466 c-39 -17 -60 -48 -111 -166 -27 -63 -40 -118 -33 -144 9
-38 55 -81 104 -100 39 -15 46 -15 76 -1 37 18 80 70 73 89 -6 14 -64 29 -78
20 -5 -3 -9 -11 -9 -19 0 -17 -34 -28 -60 -20 -28 9 -35 47 -16 83 9 17 16 36
16 42 0 6 14 40 32 76 35 71 64 92 100 73 16 -9 19 -18 15 -45 -5 -30 -2 -36
23 -49 27 -14 30 -14 44 7 41 57 4 124 -84 155 -42 15 -57 15 -92 -1z"/>
<path d="M4028 1303 c-8 -21 -37 -105 -63 -186 -54 -162 -54 -179 3 -185 29
-3 31 0 38 34 4 20 13 49 20 63 8 14 14 34 14 44 0 20 23 22 69 6 31 -11 32
-13 25 -53 -3 -22 -13 -53 -20 -68 -27 -53 -12 -88 38 -88 22 0 29 5 33 28 4
15 13 42 21 60 8 18 14 39 14 47 0 8 6 29 14 47 18 43 36 96 46 133 4 17 10
37 14 45 9 22 -6 39 -39 45 -28 6 -31 3 -47 -37 -9 -24 -19 -55 -22 -70 -8
-34 -37 -43 -75 -24 -38 20 -44 31 -31 53 18 31 39 105 34 118 -5 12 -35 25
-60 25 -7 0 -18 -17 -26 -37z"/>
<path d="M7579 1260 c-53 -28 -61 -42 -60 -111 0 -63 17 -128 54 -209 34 -73
48 -83 116 -83 73 1 121 27 146 79 16 34 16 39 -4 112 -34 127 -52 170 -84
202 -26 26 -38 30 -81 30 -30 -1 -66 -9 -87 -20z m103 -57 c26 -32 78 -184 78
-230 0 -36 -16 -53 -51 -53 -17 0 -32 9 -43 24 -43 66 -76 211 -58 251 14 30
52 33 74 8z"/>
<path d="M7254 1170 c-33 -13 -37 -27 -21 -78 8 -26 21 -69 27 -97 7 -27 19
-77 26 -110 30 -127 27 -120 63 -118 49 2 56 14 38 70 -8 26 -21 71 -27 98 -7
28 -19 77 -26 110 -8 33 -18 76 -22 95 -8 37 -23 45 -58 30z"/>
<path d="M4722 1103 c-26 -32 -27 -51 -7 -99 15 -36 13 -54 -6 -54 -25 0 -68
-45 -79 -84 -15 -54 6 -105 54 -136 29 -18 49 -21 111 -19 58 2 79 -2 93 -14
18 -17 63 -23 75 -11 3 4 0 16 -8 28 -18 24 -20 67 -4 83 16 16 27 78 17 97
-11 20 -47 21 -53 1 -17 -52 -15 -52 -41 -20 -30 38 -31 67 -2 80 25 11 68 70
68 92 0 8 -15 30 -34 49 -32 32 -39 34 -98 34 -58 0 -66 -3 -86 -27z m126 -52
c4 -25 -19 -51 -44 -51 -17 0 -27 49 -13 66 19 23 53 13 57 -15z m-49 -204
c31 -64 28 -77 -16 -77 -62 0 -87 38 -61 95 18 41 52 33 77 -18z"/>
<path d="M6840 1087 c-34 -12 -35 -14 -35 -62 1 -49 7 -89 44 -265 l18 -85 33
2 c18 0 36 5 40 10 5 4 1 38 -7 74 -18 76 -14 99 20 99 33 0 52 -25 71 -92 9
-31 20 -59 25 -62 5 -3 23 -3 41 0 28 6 31 10 25 33 -3 14 -10 46 -14 71 -6
31 -17 52 -40 71 l-31 26 20 25 c27 36 25 85 -5 131 l-26 37 -72 -1 c-40 0
-88 -6 -107 -12z m124 -63 c19 -18 21 -75 4 -92 -21 -21 -58 -14 -68 14 -11
29 -13 78 -3 87 12 13 51 7 67 -9z"/>
<path d="M5454 1032 c-12 -7 -34 -233 -34 -344 l0 -66 85 -7 c141 -12 175 2
196 77 9 34 8 48 -5 75 -9 18 -20 33 -26 33 -17 0 -11 20 15 54 52 68 26 147
-53 165 -69 15 -165 22 -178 13z m146 -77 c33 -17 39 -48 17 -79 -10 -13 -24
-17 -57 -14 l-45 3 3 40 c6 65 27 78 82 50z m-3 -177 c46 -43 13 -112 -50
-106 -31 3 -32 5 -35 52 -2 27 -1 55 2 62 8 21 57 17 83 -8z"/>
<path d="M6382 1031 c-12 -7 -12 -36 -2 -167 6 -88 14 -177 18 -199 7 -39 9
-40 47 -40 l40 0 -5 40 c-2 22 -4 60 -5 85 0 40 3 45 23 48 35 5 60 -24 67
-77 9 -63 24 -91 50 -91 37 0 44 19 36 94 -6 57 -12 73 -34 92 -32 27 -33 33
-9 50 28 20 23 116 -8 149 -22 23 -30 25 -114 25 -50 0 -97 -4 -104 -9z m157
-85 c12 -26 12 -33 0 -55 -16 -29 -57 -40 -70 -19 -11 16 -12 92 -2 102 17 16
58 0 72 -28z"/>
<path d="M5980 990 c-6 -12 -15 -42 -20 -68 -5 -26 -14 -67 -20 -92 -7 -25
-19 -72 -27 -105 -8 -33 -18 -73 -23 -89 -11 -35 1 -48 39 -44 24 3 30 9 53
63 12 27 18 30 65 33 l52 3 22 -45 c20 -43 24 -46 60 -46 42 0 47 9 30 52 -4
13 -16 50 -26 83 -21 71 -38 129 -64 210 l-19 60 -56 3 c-47 3 -56 0 -66 -18z
m85 -141 c24 -66 18 -94 -20 -94 l-30 0 3 65 c4 108 15 114 47 29z"/>
</g>
</svg>
